<?xml version="1.0" encoding="us-ascii" standalone="no"?><svg xmlns="http://www.w3.org/2000/svg" xmlns:xlink="http://www.w3.org/1999/xlink" contentStyleType="text/css" height="295px" preserveAspectRatio="none" style="width:558px;height:295px;" version="1.1" viewBox="0 0 558 295" width="558px" zoomAndPan="magnify"><defs/><g><rect fill="#FFFFFF" height="174.7969" style="stroke:#181818;stroke-width:1.0;" width="10" x="229" y="67.4297"/><rect fill="#FFFFFF" height="29.1328" style="stroke:#181818;stroke-width:1.0;" width="10" x="435" y="96.5625"/><rect fill="#FFFFFF" height="29.1328" style="stroke:#181818;stroke-width:1.0;" width="10" x="515" y="213.0938"/><line style="stroke:#181818;stroke-width:0.5;stroke-dasharray:5.0,5.0;" x1="28" x2="28" y1="36.2969" y2="260.2266"/><line style="stroke:#181818;stroke-width:0.5;stroke-dasharray:5.0,5.0;" x1="233.5" x2="233.5" y1="36.2969" y2="260.2266"/><line style="stroke:#181818;stroke-width:0.5;stroke-dasharray:5.0,5.0;" x1="439.5" x2="439.5" y1="36.2969" y2="260.2266"/><line style="stroke:#181818;stroke-width:0.5;stroke-dasharray:5.0,5.0;" x1="519.5" x2="519.5" y1="36.2969" y2="260.2266"/><rect fill="#E2E2F0" height="30.2969" rx="2.5" ry="2.5" style="stroke:#181818;stroke-width:0.5;" width="46" x="5" y="5"/><text fill="#000000" font-family="Comic Sans MS" font-size="14" lengthAdjust="spacing" textLength="32" x="12" y="24.9951">User</text><rect fill="#E2E2F0" height="30.2969" rx="2.5" ry="2.5" style="stroke:#181818;stroke-width:0.5;" width="46" x="5" y="259.2266"/><text fill="#000000" font-family="Comic Sans MS" font-size="14" lengthAdjust="spacing" textLength="32" x="12" y="279.2217">User</text><rect fill="#E2E2F0" height="30.2969" rx="2.5" ry="2.5" style="stroke:#181818;stroke-width:0.5;" width="67" x="200.5" y="5"/><text fill="#000000" font-family="Comic Sans MS" font-size="14" lengthAdjust="spacing" textLength="53" x="207.5" y="24.9951">Alacritty</text><rect fill="#E2E2F0" height="30.2969" rx="2.5" ry="2.5" style="stroke:#181818;stroke-width:0.5;" width="67" x="200.5" y="259.2266"/><text fill="#000000" font-family="Comic Sans MS" font-size="14" lengthAdjust="spacing" textLength="53" x="207.5" y="279.2217">Alacritty</text><rect fill="#E2E2F0" height="30.2969" rx="2.5" ry="2.5" style="stroke:#181818;stroke-width:0.5;" width="75" x="402.5" y="5"/><text fill="#000000" font-family="Comic Sans MS" font-size="14" lengthAdjust="spacing" textLength="61" x="409.5" y="24.9951">Detector</text><rect fill="#E2E2F0" height="30.2969" rx="2.5" ry="2.5" style="stroke:#181818;stroke-width:0.5;" width="75" x="402.5" y="259.2266"/><text fill="#000000" font-family="Comic Sans MS" font-size="14" lengthAdjust="spacing" textLength="61" x="409.5" y="279.2217">Detector</text><rect fill="#E2E2F0" height="30.2969" rx="2.5" ry="2.5" style="stroke:#181818;stroke-width:0.5;" width="65" x="487.5" y="5"/><text fill="#000000" font-family="Comic Sans MS" font-size="14" lengthAdjust="spacing" textLength="51" x="494.5" y="24.9951">System</text><rect fill="#E2E2F0" height="30.2969" rx="2.5" ry="2.5" style="stroke:#181818;stroke-width:0.5;" width="65" x="487.5" y="259.2266"/><text fill="#000000" font-family="Comic Sans MS" font-size="14" lengthAdjust="spacing" textLength="51" x="494.5" y="279.2217">System</text><rect fill="#FFFFFF" height="174.7969" style="stroke:#181818;stroke-width:1.0;" width="10" x="229" y="67.4297"/><rect fill="#FFFFFF" height="29.1328" style="stroke:#181818;stroke-width:1.0;" width="10" x="435" y="96.5625"/><rect fill="#FFFFFF" height="29.1328" style="stroke:#181818;stroke-width:1.0;" width="10" x="515" y="213.0938"/><polygon fill="#181818" points="217,63.4297,227,67.4297,217,71.4297,221,67.4297" style="stroke:#181818;stroke-width:1.0;"/><line style="stroke:#181818;stroke-width:1.0;" x1="28" x2="223" y1="67.4297" y2="67.4297"/><text fill="#000000" font-family="Comic Sans MS" font-size="13" lengthAdjust="spacing" textLength="182" x="35" y="62.3638">Trigger hint mode (Ctrl+key)</text><polygon fill="#181818" points="423,92.5625,433,96.5625,423,100.5625,427,96.5625" style="stroke:#181818;stroke-width:1.0;"/><line style="stroke:#181818;stroke-width:1.0;" x1="239" x2="429" y1="96.5625" y2="96.5625"/><text fill="#000000" font-family="Comic Sans MS" font-size="13" lengthAdjust="spacing" textLength="104" x="246" y="91.4966">Scan visible text</text><polygon fill="#181818" points="250,121.6953,240,125.6953,250,129.6953,246,125.6953" style="stroke:#181818;stroke-width:1.0;"/><line style="stroke:#181818;stroke-width:1.0;" x1="244" x2="439" y1="125.6953" y2="125.6953"/><text fill="#000000" font-family="Comic Sans MS" font-size="13" lengthAdjust="spacing" textLength="172" x="256" y="120.6294">Match patterns (URLs/files)</text><polygon fill="#181818" points="39,150.8281,29,154.8281,39,158.8281,35,154.8281" style="stroke:#181818;stroke-width:1.0;"/><line style="stroke:#181818;stroke-width:1.0;" x1="33" x2="228" y1="154.8281" y2="154.8281"/><text fill="#000000" font-family="Comic Sans MS" font-size="13" lengthAdjust="spacing" textLength="119" x="45" y="149.7622">Show hints overlay</text><polygon fill="#181818" points="217,179.9609,227,183.9609,217,187.9609,221,183.9609" style="stroke:#181818;stroke-width:1.0;"/><line style="stroke:#181818;stroke-width:1.0;" x1="28" x2="223" y1="183.9609" y2="183.9609"/><text fill="#000000" font-family="Comic Sans MS" font-size="13" lengthAdjust="spacing" textLength="68" x="35" y="178.895">Select hint</text><polygon fill="#181818" points="503,209.0938,513,213.0938,503,217.0938,507,213.0938" style="stroke:#181818;stroke-width:1.0;"/><line style="stroke:#181818;stroke-width:1.0;" x1="239" x2="509" y1="213.0938" y2="213.0938"/><text fill="#000000" font-family="Comic Sans MS" font-size="13" lengthAdjust="spacing" textLength="193" x="246" y="208.0278">Execute associated command</text><polygon fill="#181818" points="39,238.2266,29,242.2266,39,246.2266,35,242.2266" style="stroke:#181818;stroke-width:1.0;"/><line style="stroke:#181818;stroke-width:1.0;stroke-dasharray:2.0,2.0;" x1="33" x2="519" y1="242.2266" y2="242.2266"/><text fill="#000000" font-family="Comic Sans MS" font-size="13" lengthAdjust="spacing" textLength="85" x="45" y="237.1606">Open URL/file</text><!--SRC=[RLBBRi8m4BpxArOvWQggTmwLAjgUIYirvGCMPo4MVaJs1iZVTnF82t7osZixEpDoEXfVOKG79VhY70qpUTYZJQJIqDkXFXvYg7sn3ZP4u8W-IOiyJr05xR6s_1ayVwCZoDR16GsvO66JPqe9Z8qs5Ng6R9iePe09QYdchJUBkbNIT7tiRtFGEp5f3bUEudQPG_8cCRaEaBfIgNOPFB-Ef2luY-PmaDVIo8mB1S5YpT4-7QbPAjHiJiWqKQ66iYNgDwyWr-ZXP9BPMGAc2u_3WppLLtSQDiYwX0eb_IXfBRQ_N-bbRoobfOmyu9bfQ4t9_ZASEnC9mecYnUQHsvoiK7IuEvPhH2luk92kMySf1MraRG4wE2VVOpJKntazuNaGyLF9zn7rdVYfzDl4v6LCz1y0]--></g></svg>