<svg xmlns="http://www.w3.org/2000/svg" xmlns:xlink="http://www.w3.org/1999/xlink" contentStyleType="text/css" height="436px" preserveAspectRatio="none" style="width:458px;height:436px;background:#FFFFFF;" version="1.1" viewBox="0 0 458 436" width="458px" zoomAndPan="magnify"><title>Simplified Backup Process</title><defs/><g><text fill="#000000" font-family="sans-serif" font-size="14" font-weight="bold" lengthAdjust="spacing" textLength="208.2021" x="126.582" y="27.9951">Simplified Backup Process</text><line style="stroke:#181818;stroke-width:0.5;stroke-dasharray:5.0,5.0;" x1="23" x2="23" y1="118.5938" y2="429.9219"/><line style="stroke:#181818;stroke-width:0.5;stroke-dasharray:5.0,5.0;" x1="186.1416" x2="186.1416" y1="118.5938" y2="429.9219"/><line style="stroke:#181818;stroke-width:0.5;stroke-dasharray:5.0,5.0;" x1="303" x2="303" y1="118.5938" y2="429.9219"/><line style="stroke:#181818;stroke-width:0.5;stroke-dasharray:5.0,5.0;" x1="398.3916" x2="398.3916" y1="118.5938" y2="429.9219"/><text fill="#000000" font-family="sans-serif" font-size="14" lengthAdjust="spacing" textLength="31.9102" x="5" y="115.292">User</text><ellipse cx="23.9551" cy="50.7969" fill="#E2E2F0" rx="8" ry="8" style="stroke:#181818;stroke-width:0.5;"/><path d="M23.9551,58.7969 L23.9551,85.7969 M10.9551,66.7969 L36.9551,66.7969 M23.9551,85.7969 L10.9551,100.7969 M23.9551,85.7969 L36.9551,100.7969 " fill="none" style="stroke:#181818;stroke-width:0.5;"/><rect fill="#E2E2F0" height="30.2969" rx="2.5" ry="2.5" style="stroke:#181818;stroke-width:0.5;" width="99.7705" x="137.1416" y="87.2969"/><text fill="#000000" font-family="sans-serif" font-size="14" lengthAdjust="spacing" textLength="85.7705" x="144.1416" y="107.292">Backup Tool</text><text fill="#000000" font-family="sans-serif" font-size="14" lengthAdjust="spacing" textLength="48.3916" x="276" y="115.292">Source</text><path d="M285.1958,66.2969 C285.1958,56.2969 303.1958,56.2969 303.1958,56.2969 C303.1958,56.2969 321.1958,56.2969 321.1958,66.2969 L321.1958,92.2969 C321.1958,102.2969 303.1958,102.2969 303.1958,102.2969 C303.1958,102.2969 285.1958,102.2969 285.1958,92.2969 L285.1958,66.2969 " fill="#E2E2F0" style="stroke:#181818;stroke-width:1.5;"/><path d="M285.1958,66.2969 C285.1958,76.2969 303.1958,76.2969 303.1958,76.2969 C303.1958,76.2969 321.1958,76.2969 321.1958,66.2969 " fill="none" style="stroke:#181818;stroke-width:1.5;"/><text fill="#000000" font-family="sans-serif" font-size="14" lengthAdjust="spacing" textLength="110.9746" x="340.3916" y="115.292">Backup Storage</text><path d="M380.8789,66.2969 C380.8789,56.2969 398.8789,56.2969 398.8789,56.2969 C398.8789,56.2969 416.8789,56.2969 416.8789,66.2969 L416.8789,92.2969 C416.8789,102.2969 398.8789,102.2969 398.8789,102.2969 C398.8789,102.2969 380.8789,102.2969 380.8789,92.2969 L380.8789,66.2969 " fill="#E2E2F0" style="stroke:#181818;stroke-width:1.5;"/><path d="M380.8789,66.2969 C380.8789,76.2969 398.8789,76.2969 398.8789,76.2969 C398.8789,76.2969 416.8789,76.2969 416.8789,66.2969 " fill="none" style="stroke:#181818;stroke-width:1.5;"/><polygon fill="#181818" points="175.0269,145.7266,185.0269,149.7266,175.0269,153.7266,179.0269,149.7266" style="stroke:#181818;stroke-width:1;"/><line style="stroke:#181818;stroke-width:1;" x1="23.9551" x2="181.0269" y1="149.7266" y2="149.7266"/><text fill="#000000" font-family="sans-serif" font-size="13" font-weight="bold" lengthAdjust="spacing" textLength="9.0454" x="30.9551" y="144.6606">1</text><text fill="#000000" font-family="sans-serif" font-size="13" lengthAdjust="spacing" textLength="97.6396" x="44.0005" y="144.6606">Initiate Backup</text><polygon fill="#181818" points="291.1958,174.8594,301.1958,178.8594,291.1958,182.8594,295.1958,178.8594" style="stroke:#181818;stroke-width:1;"/><line style="stroke:#181818;stroke-width:1;" x1="187.0269" x2="297.1958" y1="178.8594" y2="178.8594"/><text fill="#000000" font-family="sans-serif" font-size="13" font-weight="bold" lengthAdjust="spacing" textLength="9.0454" x="194.0269" y="173.7935">2</text><text fill="#000000" font-family="sans-serif" font-size="13" lengthAdjust="spacing" textLength="68.4214" x="207.0723" y="173.7935">Read Data</text><polygon fill="#181818" points="198.0269,203.9922,188.0269,207.9922,198.0269,211.9922,194.0269,207.9922" style="stroke:#181818;stroke-width:1;"/><line style="stroke:#181818;stroke-width:1;stroke-dasharray:2.0,2.0;" x1="192.0269" x2="302.1958" y1="207.9922" y2="207.9922"/><text fill="#000000" font-family="sans-serif" font-size="13" font-weight="bold" lengthAdjust="spacing" textLength="9.0454" x="204.0269" y="202.9263">3</text><text fill="#000000" font-family="sans-serif" font-size="13" lengthAdjust="spacing" textLength="79.1235" x="217.0723" y="202.9263">Return Data</text><polygon fill="#181818" points="386.8789,233.125,396.8789,237.125,386.8789,241.125,390.8789,237.125" style="stroke:#181818;stroke-width:1;"/><line style="stroke:#181818;stroke-width:1;" x1="187.0269" x2="392.8789" y1="237.125" y2="237.125"/><text fill="#000000" font-family="sans-serif" font-size="13" font-weight="bold" lengthAdjust="spacing" textLength="9.0454" x="194.0269" y="232.0591">4</text><text fill="#000000" font-family="sans-serif" font-size="13" lengthAdjust="spacing" textLength="86.8296" x="207.0723" y="232.0591">Store Backup</text><polygon fill="#181818" points="198.0269,262.2578,188.0269,266.2578,198.0269,270.2578,194.0269,266.2578" style="stroke:#181818;stroke-width:1;"/><line style="stroke:#181818;stroke-width:1;stroke-dasharray:2.0,2.0;" x1="192.0269" x2="397.8789" y1="266.2578" y2="266.2578"/><text fill="#000000" font-family="sans-serif" font-size="13" font-weight="bold" lengthAdjust="spacing" textLength="9.0454" x="204.0269" y="261.1919">5</text><text fill="#000000" font-family="sans-serif" font-size="13" lengthAdjust="spacing" textLength="106.4629" x="217.0723" y="261.1919">Confirm Storage</text><polygon fill="#181818" points="34.9551,291.3906,24.9551,295.3906,34.9551,299.3906,30.9551,295.3906" style="stroke:#181818;stroke-width:1;"/><line style="stroke:#181818;stroke-width:1;stroke-dasharray:2.0,2.0;" x1="28.9551" x2="186.0269" y1="295.3906" y2="295.3906"/><text fill="#000000" font-family="sans-serif" font-size="13" font-weight="bold" lengthAdjust="spacing" textLength="9.0454" x="40.9551" y="290.3247">6</text><text fill="#000000" font-family="sans-serif" font-size="13" lengthAdjust="spacing" textLength="114.8354" x="54.0005" y="290.3247">Backup Complete</text><polygon fill="#181818" points="175.0269,320.5234,185.0269,324.5234,175.0269,328.5234,179.0269,324.5234" style="stroke:#181818;stroke-width:1;"/><line style="stroke:#181818;stroke-width:1;" x1="23.9551" x2="181.0269" y1="324.5234" y2="324.5234"/><text fill="#000000" font-family="sans-serif" font-size="13" font-weight="bold" lengthAdjust="spacing" textLength="9.0454" x="30.9551" y="319.4575">7</text><text fill="#000000" font-family="sans-serif" font-size="13" lengthAdjust="spacing" textLength="82.1387" x="44.0005" y="319.4575">Test Restore</text><polygon fill="#181818" points="386.8789,349.6563,396.8789,353.6563,386.8789,357.6563,390.8789,353.6563" style="stroke:#181818;stroke-width:1;"/><line style="stroke:#181818;stroke-width:1;" x1="187.0269" x2="392.8789" y1="353.6563" y2="353.6563"/><text fill="#000000" font-family="sans-serif" font-size="13" font-weight="bold" lengthAdjust="spacing" textLength="9.0454" x="194.0269" y="348.5903">8</text><text fill="#000000" font-family="sans-serif" font-size="13" lengthAdjust="spacing" textLength="106.958" x="207.0723" y="348.5903">Retrieve Backup</text><polygon fill="#181818" points="198.0269,378.7891,188.0269,382.7891,198.0269,386.7891,194.0269,382.7891" style="stroke:#181818;stroke-width:1;"/><line style="stroke:#181818;stroke-width:1;stroke-dasharray:2.0,2.0;" x1="192.0269" x2="397.8789" y1="382.7891" y2="382.7891"/><text fill="#000000" font-family="sans-serif" font-size="13" font-weight="bold" lengthAdjust="spacing" textLength="9.0454" x="204.0269" y="377.7231">9</text><text fill="#000000" font-family="sans-serif" font-size="13" lengthAdjust="spacing" textLength="96.1353" x="217.0723" y="377.7231">Return Backup</text><polygon fill="#181818" points="34.9551,407.9219,24.9551,411.9219,34.9551,415.9219,30.9551,411.9219" style="stroke:#181818;stroke-width:1;"/><line style="stroke:#181818;stroke-width:1;stroke-dasharray:2.0,2.0;" x1="28.9551" x2="186.0269" y1="411.9219" y2="411.9219"/><text fill="#000000" font-family="sans-serif" font-size="13" font-weight="bold" lengthAdjust="spacing" textLength="18.0908" x="40.9551" y="406.856">10</text><text fill="#000000" font-family="sans-serif" font-size="13" lengthAdjust="spacing" textLength="116.981" x="63.0459" y="406.856">Restore Complete</text><!--SRC=[VP0zRiCm38LtdOBmdWjuwD1aoLR4wG5ecMw9sg8XKK6FN_t5JH6W6y77zxudVV94C8leADy6eugBwqZUAEj2CF2wBJmpJV2AzYjkyER5KWZ6e5NnqBq7yXrWW9W6iw5NjhoXK-YQuogob0jDWvbGSSH0q0qIlQMYX38-QCqw90H-j9iw6vD1S7WfSJsS7IkZKkjdyZQhDRA72-44fnHiwWOEk_L26hshucwhbBwWzz2sVV0UnStirtl3vazoRjVVF-iewVj8dqfVAMZ2vrXwHgTUdkds3xqr__FadTroV-4_]--></g></svg>