<?xml version="1.0" encoding="us-ascii" standalone="no"?><svg xmlns="http://www.w3.org/2000/svg" xmlns:xlink="http://www.w3.org/1999/xlink" contentStyleType="text/css" height="353px" preserveAspectRatio="none" style="width:1003px;height:353px;background:#FFFFFF;" version="1.1" viewBox="0 0 1003 353" width="1003px" zoomAndPan="magnify"><defs/><g><line style="stroke:#000000;stroke-width:1.0;" x1="48" x2="48" y1="36.2969" y2="318.4922"/><line style="stroke:#000000;stroke-width:1.0;" x1="152" x2="152" y1="36.2969" y2="318.4922"/><line style="stroke:#000000;stroke-width:1.0;" x1="275" x2="275" y1="36.2969" y2="318.4922"/><line style="stroke:#000000;stroke-width:1.0;" x1="402" x2="402" y1="36.2969" y2="318.4922"/><line style="stroke:#000000;stroke-width:1.0;" x1="513" x2="513" y1="36.2969" y2="318.4922"/><line style="stroke:#000000;stroke-width:1.0;" x1="630" x2="630" y1="36.2969" y2="318.4922"/><line style="stroke:#000000;stroke-width:1.0;" x1="758" x2="758" y1="36.2969" y2="318.4922"/><line style="stroke:#000000;stroke-width:1.0;" x1="872" x2="872" y1="36.2969" y2="318.4922"/><line style="stroke:#000000;stroke-width:1.0;" x1="974" x2="974" y1="36.2969" y2="318.4922"/><rect fill="#FFFFFF" height="30.2969" rx="2.5" ry="2.5" style="stroke:#000000;stroke-width:1.0;" width="37" x="30" y="5"/><text fill="#000000" font-family="Verdana" font-size="14" lengthAdjust="spacing" textLength="23" x="37" y="24.9951">File</text><rect fill="#FFFFFF" height="30.2969" rx="2.5" ry="2.5" style="stroke:#000000;stroke-width:1.0;" width="37" x="30" y="317.4922"/><text fill="#000000" font-family="Verdana" font-size="14" lengthAdjust="spacing" textLength="23" x="37" y="337.4873">File</text><rect fill="#FFFFFF" height="30.2969" rx="2.5" ry="2.5" style="stroke:#000000;stroke-width:1.0;" width="70" x="117" y="5"/><text fill="#000000" font-family="Verdana" font-size="14" lengthAdjust="spacing" textLength="56" x="124" y="24.9951">Content</text><rect fill="#FFFFFF" height="30.2969" rx="2.5" ry="2.5" style="stroke:#000000;stroke-width:1.0;" width="70" x="117" y="317.4922"/><text fill="#000000" font-family="Verdana" font-size="14" lengthAdjust="spacing" textLength="56" x="124" y="337.4873">Content</text><rect fill="#FFFFFF" height="30.2969" rx="2.5" ry="2.5" style="stroke:#000000;stroke-width:1.0;" width="76" x="237" y="5"/><text fill="#000000" font-family="Verdana" font-size="14" lengthAdjust="spacing" textLength="62" x="244" y="24.9951">Directory</text><rect fill="#FFFFFF" height="30.2969" rx="2.5" ry="2.5" style="stroke:#000000;stroke-width:1.0;" width="76" x="237" y="317.4922"/><text fill="#000000" font-family="Verdana" font-size="14" lengthAdjust="spacing" textLength="62" x="244" y="337.4873">Directory</text><rect fill="#FFFFFF" height="30.2969" rx="2.5" ry="2.5" style="stroke:#000000;stroke-width:1.0;" width="78" x="363" y="5"/><text fill="#000000" font-family="Verdana" font-size="14" lengthAdjust="spacing" textLength="64" x="370" y="24.9951">Metadata</text><rect fill="#FFFFFF" height="30.2969" rx="2.5" ry="2.5" style="stroke:#000000;stroke-width:1.0;" width="78" x="363" y="317.4922"/><text fill="#000000" font-family="Verdana" font-size="14" lengthAdjust="spacing" textLength="64" x="370" y="337.4873">Metadata</text><rect fill="#FFFFFF" height="30.2969" rx="2.5" ry="2.5" style="stroke:#000000;stroke-width:1.0;" width="45" x="491" y="5"/><text fill="#000000" font-family="Verdana" font-size="14" lengthAdjust="spacing" textLength="31" x="498" y="24.9951">Files</text><rect fill="#FFFFFF" height="30.2969" rx="2.5" ry="2.5" style="stroke:#000000;stroke-width:1.0;" width="45" x="491" y="317.4922"/><text fill="#000000" font-family="Verdana" font-size="14" lengthAdjust="spacing" textLength="31" x="498" y="337.4873">Files</text><rect fill="#FFFFFF" height="30.2969" rx="2.5" ry="2.5" style="stroke:#000000;stroke-width:1.0;" width="88" x="586" y="5"/><text fill="#000000" font-family="Verdana" font-size="14" lengthAdjust="spacing" textLength="74" x="593" y="24.9951">FileSystem</text><rect fill="#FFFFFF" height="30.2969" rx="2.5" ry="2.5" style="stroke:#000000;stroke-width:1.0;" width="88" x="586" y="317.4922"/><text fill="#000000" font-family="Verdana" font-size="14" lengthAdjust="spacing" textLength="74" x="593" y="337.4873">FileSystem</text><rect fill="#FFFFFF" height="30.2969" rx="2.5" ry="2.5" style="stroke:#000000;stroke-width:1.0;" width="68" x="724" y="5"/><text fill="#000000" font-family="Verdana" font-size="14" lengthAdjust="spacing" textLength="54" x="731" y="24.9951">Storage</text><rect fill="#FFFFFF" height="30.2969" rx="2.5" ry="2.5" style="stroke:#000000;stroke-width:1.0;" width="68" x="724" y="317.4922"/><text fill="#000000" font-family="Verdana" font-size="14" lengthAdjust="spacing" textLength="54" x="731" y="337.4873">Storage</text><rect fill="#FFFFFF" height="30.2969" rx="2.5" ry="2.5" style="stroke:#000000;stroke-width:1.0;" width="60" x="842" y="5"/><text fill="#000000" font-family="Verdana" font-size="14" lengthAdjust="spacing" textLength="46" x="849" y="24.9951">Blocks</text><rect fill="#FFFFFF" height="30.2969" rx="2.5" ry="2.5" style="stroke:#000000;stroke-width:1.0;" width="60" x="842" y="317.4922"/><text fill="#000000" font-family="Verdana" font-size="14" lengthAdjust="spacing" textLength="46" x="849" y="337.4873">Blocks</text><rect fill="#FFFFFF" height="30.2969" rx="2.5" ry="2.5" style="stroke:#000000;stroke-width:1.0;" width="45" x="952" y="5"/><text fill="#000000" font-family="Verdana" font-size="14" lengthAdjust="spacing" textLength="31" x="959" y="24.9951">Path</text><rect fill="#FFFFFF" height="30.2969" rx="2.5" ry="2.5" style="stroke:#000000;stroke-width:1.0;" width="45" x="952" y="317.4922"/><text fill="#000000" font-family="Verdana" font-size="14" lengthAdjust="spacing" textLength="31" x="959" y="337.4873">Path</text><polygon fill="#000000" points="140,63.4297,150,67.4297,140,71.4297,144,67.4297" style="stroke:#000000;stroke-width:1.0;"/><line style="stroke:#000000;stroke-width:1.0;" x1="48.5" x2="146" y1="67.4297" y2="67.4297"/><text fill="#000000" font-family="Verdana" font-size="13" lengthAdjust="spacing" textLength="63" x="55.5" y="62.3638">read/write</text><polygon fill="#000000" points="263,92.5625,273,96.5625,263,100.5625,267,96.5625" style="stroke:#000000;stroke-width:1.0;"/><line style="stroke:#000000;stroke-width:1.0;" x1="48.5" x2="269" y1="96.5625" y2="96.5625"/><text fill="#000000" font-family="Verdana" font-size="13" lengthAdjust="spacing" textLength="85" x="55.5" y="91.4966">create/delete</text><polygon fill="#000000" points="390,121.6953,400,125.6953,390,129.6953,394,125.6953" style="stroke:#000000;stroke-width:1.0;"/><line style="stroke:#000000;stroke-width:1.0;" x1="48.5" x2="396" y1="125.6953" y2="125.6953"/><text fill="#000000" font-family="Verdana" font-size="13" lengthAdjust="spacing" textLength="32" x="55.5" y="120.6294">open</text><polygon fill="#000000" points="501.5,150.8281,511.5,154.8281,501.5,158.8281,505.5,154.8281" style="stroke:#000000;stroke-width:1.0;"/><line style="stroke:#000000;stroke-width:1.0;" x1="275" x2="507.5" y1="154.8281" y2="154.8281"/><text fill="#000000" font-family="Verdana" font-size="13" lengthAdjust="spacing" textLength="65" x="282" y="149.7622">list/search</text><polygon fill="#000000" points="618,179.9609,628,183.9609,618,187.9609,622,183.9609" style="stroke:#000000;stroke-width:1.0;"/><line style="stroke:#000000;stroke-width:1.0;" x1="275" x2="624" y1="183.9609" y2="183.9609"/><text fill="#000000" font-family="Verdana" font-size="13" lengthAdjust="spacing" textLength="85" x="282" y="178.895">create/delete</text><polygon fill="#000000" points="962.5,209.0938,972.5,213.0938,962.5,217.0938,966.5,213.0938" style="stroke:#000000;stroke-width:1.0;"/><line style="stroke:#000000;stroke-width:1.0;" x1="275" x2="968.5" y1="213.0938" y2="213.0938"/><text fill="#000000" font-family="Verdana" font-size="13" lengthAdjust="spacing" textLength="42" x="282" y="208.0278">lookup</text><polygon fill="#000000" points="746,238.2266,756,242.2266,746,246.2266,750,242.2266" style="stroke:#000000;stroke-width:1.0;"/><line style="stroke:#000000;stroke-width:1.0;" x1="630" x2="752" y1="242.2266" y2="242.2266"/><text fill="#000000" font-family="Verdana" font-size="13" lengthAdjust="spacing" textLength="104" x="637" y="237.1606">mount/unmount</text><polygon fill="#000000" points="746,267.3594,756,271.3594,746,275.3594,750,271.3594" style="stroke:#000000;stroke-width:1.0;"/><line style="stroke:#000000;stroke-width:1.0;" x1="630" x2="752" y1="271.3594" y2="271.3594"/><text fill="#000000" font-family="Verdana" font-size="13" lengthAdjust="spacing" textLength="51" x="637" y="266.2935">initialize</text><polygon fill="#000000" points="860,296.4922,870,300.4922,860,304.4922,864,300.4922" style="stroke:#000000;stroke-width:1.0;"/><line style="stroke:#000000;stroke-width:1.0;" x1="630" x2="866" y1="300.4922" y2="300.4922"/><text fill="#000000" font-family="Verdana" font-size="13" lengthAdjust="spacing" textLength="50" x="637" y="295.4263">allocate</text><!--SRC=[TP51RiCW44Ntd69wWCfkboowQAlk8bdo2KOmYaV6W62iD3bzSD8u8LPNeF__VBs15nbe8eWEsQiyie-OS889VtUKC-wfvnF1Mzi-c1qcOSCHlNHeBVizlBTAnRiCF-oe4hw25_9IQT-So4X8nqhTaQ15mKrVtYZzCGjDbToNla9TQPykcB6Uxb06fPOEUFsumMb8XBOv91PQlHLIWocsK6F9qKFWngiXHF9gpI_U1Lk3uonD9ancsFhN9PxRgzX2Mrf26EUexZEBzRUlXYdCNfhPNyx_GknP65tvqgV4zOaqe2kNWd46]--></g></svg>