<svg xmlns="http://www.w3.org/2000/svg" xmlns:xlink="http://www.w3.org/1999/xlink" contentStyleType="text/css" height="394px" preserveAspectRatio="none" style="width:571px;height:394px;background:#282C34;" version="1.1" viewBox="0 0 571 394" width="571px" zoomAndPan="magnify"><defs/><g><rect fill="#282C34" height="394" style="stroke:none;stroke-width:1;" width="571" x="0" y="0"/><rect fill="#3E4451" height="265.3281" style="stroke:#E06C75;stroke-width:1;" width="10" x="217.2305" y="112.4297"/><rect fill="#3E4451" height="88.5313" style="stroke:#E06C75;stroke-width:1;" width="10" x="404.8711" y="215.9609"/><rect fill="none" height="243.3281" style="stroke:#000000;stroke-width:1.5;" width="555.1099" x="10" y="127.4297"/><line style="stroke:#E06C75;stroke-width:0.5;stroke-dasharray:5.0,5.0;" x1="38" x2="38" y1="81.2969" y2="387.7578"/><line style="stroke:#E06C75;stroke-width:0.5;stroke-dasharray:5.0,5.0;" x1="221.8042" x2="221.8042" y1="81.2969" y2="387.7578"/><line style="stroke:#E06C75;stroke-width:0.5;stroke-dasharray:5.0,5.0;" x1="408.8911" x2="408.8911" y1="81.2969" y2="387.7578"/><line style="stroke:#E06C75;stroke-width:0.5;stroke-dasharray:5.0,5.0;" x1="510.8511" x2="510.8511" y1="81.2969" y2="387.7578"/><text fill="#000000" font-family="sans-serif" font-size="14" lengthAdjust="spacing" textLength="31.9102" x="20" y="77.9951">User</text><ellipse cx="38.9551" cy="13.5" fill="#E2E2F0" rx="8" ry="8" style="stroke:#181818;stroke-width:0.5;"/><path d="M38.9551,21.5 L38.9551,48.5 M25.9551,29.5 L51.9551,29.5 M38.9551,48.5 L25.9551,63.5 M38.9551,48.5 L51.9551,63.5 " fill="none" style="stroke:#181818;stroke-width:0.5;"/><rect fill="#61AFEF" height="30.2969" rx="2.5" ry="2.5" style="stroke:#528BFF;stroke-width:0.5;" width="92.8525" x="175.8042" y="50"/><text fill="#FFFFFF" font-family="sans-serif" font-size="14" lengthAdjust="spacing" textLength="78.8525" x="182.8042" y="69.9951">beam.nvim</text><rect fill="#61AFEF" height="30.2969" rx="2.5" ry="2.5" style="stroke:#528BFF;stroke-width:0.5;" width="93.96" x="362.8911" y="50"/><text fill="#FFFFFF" font-family="sans-serif" font-size="14" lengthAdjust="spacing" textLength="79.96" x="369.8911" y="69.9951">Vim Search</text><rect fill="#61AFEF" height="30.2969" rx="2.5" ry="2.5" style="stroke:#528BFF;stroke-width:0.5;" width="88.2588" x="466.8511" y="50"/><text fill="#FFFFFF" font-family="sans-serif" font-size="14" lengthAdjust="spacing" textLength="74.2588" x="473.8511" y="69.9951">Vim Buffer</text><rect fill="#3E4451" height="265.3281" style="stroke:#E06C75;stroke-width:1;" width="10" x="217.2305" y="112.4297"/><rect fill="#3E4451" height="88.5313" style="stroke:#E06C75;stroke-width:1;" width="10" x="404.8711" y="215.9609"/><polygon fill="#98C379" points="205.2305,108.4297,215.2305,112.4297,205.2305,116.4297,209.2305,112.4297" style="stroke:#98C379;stroke-width:1;"/><line style="stroke:#98C379;stroke-width:1;" x1="38.9551" x2="211.2305" y1="112.4297" y2="112.4297"/><text fill="#000000" font-family="sans-serif" font-size="13" lengthAdjust="spacing" textLength="159.2754" x="45.9551" y="107.3638">,yiw (remote yank word)</text><path d="M10,127.4297 L210.0161,127.4297 L210.0161,134.5625 L200.0161,144.5625 L10,144.5625 L10,127.4297 " fill="#EEEEEE" style="stroke:#000000;stroke-width:1.5;"/><rect fill="none" height="243.3281" style="stroke:#000000;stroke-width:1.5;" width="555.1099" x="10" y="127.4297"/><text fill="#000000" font-family="sans-serif" font-size="13" font-weight="bold" lengthAdjust="spacing" textLength="155.0161" x="25" y="140.4966">beam.nvim Workflow</text><polygon fill="#98C379" points="49.9551,179.8281,39.9551,183.8281,49.9551,187.8281,45.9551,183.8281" style="stroke:#98C379;stroke-width:1;"/><line style="stroke:#98C379;stroke-width:1;" x1="43.9551" x2="216.2305" y1="183.8281" y2="183.8281"/><text fill="#000000" font-family="sans-serif" font-size="13" lengthAdjust="spacing" textLength="139.9404" x="55.9551" y="163.6294">1. Text object chosen</text><text fill="#000000" font-family="sans-serif" font-size="13" lengthAdjust="spacing" textLength="139.7056" x="55.9551" y="178.7622">(iw already specified)</text><path d="M232,149.5625 L232,189.5625 L354,189.5625 L354,159.5625 L344,149.5625 L232,149.5625 " fill="#3E4451" style="stroke:#61AFEF;stroke-width:0.5;"/><path d="M344,149.5625 L344,159.5625 L354,159.5625 L344,149.5625 " fill="#3E4451" style="stroke:#61AFEF;stroke-width:0.5;"/><text fill="#ABB2BF" font-family="sans-serif" font-size="13" lengthAdjust="spacing" textLength="101.3467" x="238" y="166.6294">Object selected</text><text fill="#ABB2BF" font-family="sans-serif" font-size="13" lengthAdjust="spacing" textLength="97.8364" x="238" y="181.7622">before location</text><polygon fill="#98C379" points="392.8711,211.9609,402.8711,215.9609,392.8711,219.9609,396.8711,215.9609" style="stroke:#98C379;stroke-width:1;"/><line style="stroke:#98C379;stroke-width:1;" x1="227.2305" x2="398.8711" y1="215.9609" y2="215.9609"/><text fill="#000000" font-family="sans-serif" font-size="13" lengthAdjust="spacing" textLength="158.6406" x="234.2305" y="210.895">2. Activate search mode</text><polygon fill="#98C379" points="392.8711,256.2266,402.8711,260.2266,392.8711,264.2266,396.8711,260.2266" style="stroke:#98C379;stroke-width:1;"/><line style="stroke:#98C379;stroke-width:1;" x1="38.9551" x2="398.8711" y1="260.2266" y2="260.2266"/><text fill="#000000" font-family="sans-serif" font-size="13" lengthAdjust="spacing" textLength="224.6118" x="45.9551" y="240.0278">Type search pattern with highlight</text><text fill="#000000" font-family="sans-serif" font-size="13" lengthAdjust="spacing" textLength="180.4575" x="45.9551" y="255.1606">Navigate with Ctrl-G / Ctrl-T</text><polygon fill="#98C379" points="397.8711,300.4922,407.8711,304.4922,397.8711,308.4922,401.8711,304.4922" style="stroke:#98C379;stroke-width:1;"/><line style="stroke:#98C379;stroke-width:1;" x1="38.9551" x2="403.8711" y1="304.4922" y2="304.4922"/><text fill="#000000" font-family="sans-serif" font-size="13" lengthAdjust="spacing" textLength="73.7534" x="45.9551" y="284.2935">Press Enter</text><text fill="#000000" font-family="sans-serif" font-size="13" lengthAdjust="spacing" textLength="94.0151" x="45.9551" y="299.4263">(select match)</text><polygon fill="#98C379" points="498.9805,329.625,508.9805,333.625,498.9805,337.625,502.9805,333.625" style="stroke:#98C379;stroke-width:1;"/><line style="stroke:#98C379;stroke-width:1;" x1="227.2305" x2="504.9805" y1="333.625" y2="333.625"/><text fill="#000000" font-family="sans-serif" font-size="13" lengthAdjust="spacing" textLength="175.7729" x="234.2305" y="328.5591">3. Apply operator remotely</text><polygon fill="#98C379" points="49.9551,358.7578,39.9551,362.7578,49.9551,366.7578,45.9551,362.7578" style="stroke:#98C379;stroke-width:1;"/><line style="stroke:#98C379;stroke-width:1;stroke-dasharray:2.0,2.0;" x1="43.9551" x2="509.9805" y1="362.7578" y2="362.7578"/><text fill="#000000" font-family="sans-serif" font-size="13" lengthAdjust="spacing" textLength="306.9409" x="55.9551" y="357.6919">Text yanked/deleted changed/visually selected</text><!--SRC=[TL9DSzCm4BthLopbKcP8IhxQD0TccapWqcbXci8b5rbQnIAsP2GbgOVXlwCF9zWfw61BJxlxtjlL6uv2AeIdvTVdvSDYINB94OJMBjCln6wbggYX9MIKRJT6xnHVw48RU3kS3jbet8hmNoUPhAXoy8k0N_FpdEi15IZIdJOSJODFXjDC9FoJLgv1HLpaTul3uiyTAeODmPqn-j14tqxPwEOsmlTIuBqtrU703zViPjAzFzStml5uCkWmAktmVtQQy5TsMZPRTcYM3RDWXr3cFF1iqP1sqouof6LVxMLv0TJ2t9-wzzza2Kz83SjZGDg-3fdlX42JQiGj8O4BUXzZpHcyh-K1BWsMmLjDrHOENlwxe4lkgSSYDGbUApY9Wk_QR4MX3ycmXqF5K7a6WpwiyCM1pduWSy1oRL6jrQNdeOL1ockm5J8f97gUa1_xQkGcTpDuJ5aM2_z3lbOP2cqG2isearh5X0vhiZw3OH_kZg9jnA3K76FioKtJfu0T-t3CNzNLAR6Ypg5HS90kXzmhAuAwjNgWUxa9TUB5mfcYznckqcRrLzfvwIy6hOMbyZLz8v8tAAbZUMe0nty9xBXCqvl1oBkigg86NQ6XuUsasHLr2ezXq3jD8uuYp1Nv5VV4lgT-95Hj_7alxOuMljQnsuaM5IUa9Ic-W3y0]--></g></svg>