<svg xmlns="http://www.w3.org/2000/svg" xmlns:xlink="http://www.w3.org/1999/xlink" contentStyleType="text/css" height="415px" preserveAspectRatio="none" style="width:523px;height:415px;background:#282C34;" version="1.1" viewBox="0 0 523 415" width="523px" zoomAndPan="magnify"><defs/><g><rect fill="#282C34" height="415" style="stroke:none;stroke-width:1;" width="523" x="0" y="0"/><rect fill="#3E4451" height="286.4609" style="stroke:#E06C75;stroke-width:1;" width="10" x="204.9097" y="112.4297"/><rect fill="#3E4451" height="197.0625" style="stroke:#E06C75;stroke-width:1;" width="10" x="344.7949" y="183.8281"/><rect fill="none" height="264.4609" style="stroke:#000000;stroke-width:1.5;" width="507.1938" x="10" y="127.4297"/><line style="stroke:#E06C75;stroke-width:0.5;stroke-dasharray:5.0,5.0;" x1="38" x2="38" y1="81.2969" y2="408.8906"/><line style="stroke:#E06C75;stroke-width:0.5;stroke-dasharray:5.0,5.0;" x1="209.7803" x2="209.7803" y1="81.2969" y2="408.8906"/><line style="stroke:#E06C75;stroke-width:0.5;stroke-dasharray:5.0,5.0;" x1="349.7852" x2="349.7852" y1="81.2969" y2="408.8906"/><line style="stroke:#E06C75;stroke-width:0.5;stroke-dasharray:5.0,5.0;" x1="443.8047" x2="443.8047" y1="81.2969" y2="408.8906"/><text fill="#000000" font-family="sans-serif" font-size="14" lengthAdjust="spacing" textLength="31.9102" x="20" y="77.9951">User</text><ellipse cx="38.9551" cy="13.5" fill="#E2E2F0" rx="8" ry="8" style="stroke:#181818;stroke-width:0.5;"/><path d="M38.9551,21.5 L38.9551,48.5 M25.9551,29.5 L51.9551,29.5 M38.9551,48.5 L25.9551,63.5 M38.9551,48.5 L51.9551,63.5 " fill="none" style="stroke:#181818;stroke-width:0.5;"/><rect fill="#61AFEF" height="30.2969" rx="2.5" ry="2.5" style="stroke:#528BFF;stroke-width:0.5;" width="88.2588" x="165.7803" y="50"/><text fill="#FFFFFF" font-family="sans-serif" font-size="14" lengthAdjust="spacing" textLength="74.2588" x="172.7803" y="69.9951">Vim Buffer</text><rect fill="#61AFEF" height="30.2969" rx="2.5" ry="2.5" style="stroke:#528BFF;stroke-width:0.5;" width="60.0195" x="319.7852" y="50"/><text fill="#FFFFFF" font-family="sans-serif" font-size="14" lengthAdjust="spacing" textLength="46.0195" x="326.7852" y="69.9951">Cursor</text><rect fill="#61AFEF" height="46.5938" rx="2.5" ry="2.5" style="stroke:#528BFF;stroke-width:0.5;" width="108.7666" x="389.8047" y="33.7031"/><text fill="#FFFFFF" font-family="sans-serif" font-size="14" lengthAdjust="spacing" textLength="94.7666" x="396.8047" y="53.6982">Motion Plugin</text><text fill="#FFFFFF" font-family="sans-serif" font-size="14" lengthAdjust="spacing" textLength="67.6621" x="410.3569" y="69.9951">(optional)</text><rect fill="#3E4451" height="286.4609" style="stroke:#E06C75;stroke-width:1;" width="10" x="204.9097" y="112.4297"/><rect fill="#3E4451" height="197.0625" style="stroke:#E06C75;stroke-width:1;" width="10" x="344.7949" y="183.8281"/><polygon fill="#98C379" points="192.9097,108.4297,202.9097,112.4297,192.9097,116.4297,196.9097,112.4297" style="stroke:#98C379;stroke-width:1;"/><line style="stroke:#98C379;stroke-width:1;" x1="38.9551" x2="198.9097" y1="112.4297" y2="112.4297"/><text fill="#000000" font-family="sans-serif" font-size="13" lengthAdjust="spacing" textLength="146.9546" x="45.9551" y="107.3638">"I need to edit line 42"</text><path d="M10,127.4297 L208.8037,127.4297 L208.8037,134.5625 L198.8037,144.5625 L10,144.5625 L10,127.4297 " fill="#EEEEEE" style="stroke:#000000;stroke-width:1.5;"/><rect fill="none" height="264.4609" style="stroke:#000000;stroke-width:1.5;" width="507.1938" x="10" y="127.4297"/><text fill="#000000" font-family="sans-serif" font-size="13" font-weight="bold" lengthAdjust="spacing" textLength="153.8037" x="25" y="140.4966">Traditional Workflow</text><polygon fill="#98C379" points="332.7949,179.8281,342.7949,183.8281,332.7949,187.8281,336.7949,183.8281" style="stroke:#98C379;stroke-width:1;"/><line style="stroke:#98C379;stroke-width:1;" x1="38.9551" x2="338.7949" y1="183.8281" y2="183.8281"/><text fill="#000000" font-family="sans-serif" font-size="13" lengthAdjust="spacing" textLength="135.916" x="45.9551" y="163.6294">1. Navigate to target</text><text fill="#000000" font-family="sans-serif" font-size="13" lengthAdjust="spacing" textLength="105.4346" x="45.9551" y="178.7622">(/, ?, gg, G, etc.)</text><path d="M359,149.5625 L359,189.5625 L484,189.5625 L484,159.5625 L474,149.5625 L359,149.5625 " fill="#3E4451" style="stroke:#61AFEF;stroke-width:0.5;"/><path d="M474,149.5625 L474,159.5625 L484,159.5625 L474,149.5625 " fill="#3E4451" style="stroke:#61AFEF;stroke-width:0.5;"/><text fill="#ABB2BF" font-family="sans-serif" font-size="13" lengthAdjust="spacing" textLength="103.7207" x="365" y="166.6294">Must remember</text><text fill="#ABB2BF" font-family="sans-serif" font-size="13" lengthAdjust="spacing" textLength="104.2158" x="365" y="181.7622">original position</text><polygon fill="#98C379" points="225.9097,211.9609,215.9097,215.9609,225.9097,219.9609,221.9097,215.9609" style="stroke:#98C379;stroke-width:1;"/><line style="stroke:#98C379;stroke-width:1;" x1="219.9097" x2="343.7949" y1="215.9609" y2="215.9609"/><text fill="#000000" font-family="sans-serif" font-size="13" lengthAdjust="spacing" textLength="105.8853" x="231.9097" y="210.895">Jump to location</text><polygon fill="#98C379" points="192.9097,256.2266,202.9097,260.2266,192.9097,264.2266,196.9097,260.2266" style="stroke:#98C379;stroke-width:1;"/><line style="stroke:#98C379;stroke-width:1;" x1="38.9551" x2="198.9097" y1="260.2266" y2="260.2266"/><text fill="#000000" font-family="sans-serif" font-size="13" lengthAdjust="spacing" textLength="130.8506" x="45.9551" y="240.0278">2. Select text object</text><text fill="#000000" font-family="sans-serif" font-size="13" lengthAdjust="spacing" textLength="101.7466" x="45.9551" y="255.1606">(iw, aw, i", etc.)</text><polygon fill="#98C379" points="192.9097,300.4922,202.9097,304.4922,192.9097,308.4922,196.9097,304.4922" style="stroke:#98C379;stroke-width:1;"/><line style="stroke:#98C379;stroke-width:1;" x1="38.9551" x2="198.9097" y1="304.4922" y2="304.4922"/><text fill="#000000" font-family="sans-serif" font-size="13" lengthAdjust="spacing" textLength="113.2803" x="45.9551" y="284.2935">3. Apply operator</text><text fill="#000000" font-family="sans-serif" font-size="13" lengthAdjust="spacing" textLength="82.4053" x="45.9551" y="299.4263">(d, y, c, etc.)</text><polygon fill="#98C379" points="49.9551,329.625,39.9551,333.625,49.9551,337.625,45.9551,333.625" style="stroke:#98C379;stroke-width:1;"/><line style="stroke:#98C379;stroke-width:1;stroke-dasharray:2.0,2.0;" x1="43.9551" x2="203.9097" y1="333.625" y2="333.625"/><text fill="#000000" font-family="sans-serif" font-size="13" lengthAdjust="spacing" textLength="89.7813" x="55.9551" y="328.5591">Text modified</text><polygon fill="#98C379" points="337.7949,376.8906,347.7949,380.8906,337.7949,384.8906,341.7949,380.8906" style="stroke:#98C379;stroke-width:1;"/><line style="stroke:#98C379;stroke-width:1;" x1="38.9551" x2="343.7949" y1="380.8906" y2="380.8906"/><text fill="#000000" font-family="sans-serif" font-size="13" lengthAdjust="spacing" textLength="109.8716" x="45.9551" y="360.6919">4. Navigate back</text><text fill="#000000" font-family="sans-serif" font-size="13" lengthAdjust="spacing" textLength="96.2495" x="45.9551" y="375.8247">(Ctrl-O, '', etc.)</text><path d="M359,346.625 L359,386.625 L501,386.625 L501,356.625 L491,346.625 L359,346.625 " fill="#3E4451" style="stroke:#61AFEF;stroke-width:0.5;"/><path d="M491,346.625 L491,356.625 L501,356.625 L491,346.625 " fill="#3E4451" style="stroke:#61AFEF;stroke-width:0.5;"/><text fill="#ABB2BF" font-family="sans-serif" font-size="13" lengthAdjust="spacing" textLength="91.6348" x="365" y="363.6919">Manual return</text><text fill="#ABB2BF" font-family="sans-serif" font-size="13" lengthAdjust="spacing" textLength="121.3989" x="365" y="378.8247">to original position</text><!--SRC=[TLDTRzCm57tthxYKXp4fBJHjzz47q5OLDBGDq3PusOjZNsUcYMzmd7KJuhzZ9nbokc4faNC_pZtds7abKMc3SBN-ThE-NArPlT6cufQNa76noIqrHgwe80klqwDKpERiJai4HUGoUeZA_TjfeIjk7FncuDVfBi31b2jKNOwiHDl75-bHfhhuHpAkZwfsiJ_HZ1f_DMW4zWDEhALjNtry96Q7nstuN2iyzw86C_3TWJXS3FEx_6Oudo-cWuc67FvFJb_-J4uaCvB3iopDWXp6XVE1cnejYqqRVTSbd3PAeHq1h_lji6JLs9gwTBSTfY_8QJBmjMXoRMxD6wh2Do_ssuukorYO3EFt_O0bZCx084fm12YrWo9SY7aw2aJrFVS6z5HOa5_1jUM-h0M67sGtgg1jg_O9kAEsXEa4BlczpWE41tVSvkWyhRS9V4WWpnFub00wCTbls_-DwwM5MEk_rVcTMy95KpkmM6APeRqrvCCwSAYeRkcq3Ush0uWrVcxAAd0eIF1XxQuRwGIki43XmE630yf- -hqdhRS9SF_eKSpvHOZP14wggdW4gj1oVzY-NIRmc828Uxjo6FlEWB24wp2m9AcLHlaS_idMUMHh-4az-ihPOlmbWRszUC30F6uQxvL5rrX_DRmLB_idSVSOq4Z6ed1_6Vu2]--></g></svg>