<?xml version="1.0" encoding="UTF-8" standalone="no"?><svg xmlns="http://www.w3.org/2000/svg" xmlns:xlink="http://www.w3.org/1999/xlink" contentStyleType="text/css" height="349px" preserveAspectRatio="none" style="width:657px;height:349px;background:#FFFFFF;" version="1.1" viewBox="0 0 657 349" width="657px" zoomAndPan="magnify"><defs/><g><rect height="26.2969" style="stroke:#00000000;stroke-width:1.0;fill:none;" width="179" x="240" y="10"/><text fill="#000000" font-family="sans-serif" font-size="14" font-weight="bold" lengthAdjust="spacing" textLength="169" x="245" y="27.9951">Automated Runbooks</text><rect height="131.5" style="stroke:#000000;stroke-width:1.5;fill:none;" width="640" x="10" y="193.8594"/><line style="stroke:#181818;stroke-width:0.5;fill:none;stroke-dasharray:5.0,5.0;" x1="54" x2="54" y1="118.5938" y2="342.3594"/><line style="stroke:#181818;stroke-width:0.5;fill:none;stroke-dasharray:5.0,5.0;" x1="207" x2="207" y1="118.5938" y2="342.3594"/><line style="stroke:#181818;stroke-width:0.5;fill:none;stroke-dasharray:5.0,5.0;" x1="316" x2="316" y1="118.5938" y2="342.3594"/><line style="stroke:#181818;stroke-width:0.5;fill:none;stroke-dasharray:5.0,5.0;" x1="439" x2="439" y1="118.5938" y2="342.3594"/><line style="stroke:#181818;stroke-width:0.5;fill:none;stroke-dasharray:5.0,5.0;" x1="584" x2="584" y1="314.7109" y2="342.3594"/><rect fill="#E2E2F0" height="30.2969" rx="2.5" ry="2.5" style="stroke:#181818;stroke-width:0.5;" width="69" x="20" y="87.2969"/><text fill="#000000" font-family="sans-serif" font-size="14" lengthAdjust="spacing" textLength="55" x="27" y="107.292">Incident</text><text fill="#000000" font-family="sans-serif" font-size="14" lengthAdjust="spacing" textLength="123" x="143" y="115.292">On-call responder</text><ellipse cx="207.5" cy="50.7969" fill="#E2E2F0" rx="8" ry="8" style="stroke:#181818;stroke-width:0.5;"/><path d="M207.5,58.7969 L207.5,85.7969 M194.5,66.7969 L220.5,66.7969 M207.5,85.7969 L194.5,100.7969 M207.5,85.7969 L220.5,100.7969 " fill="none" style="stroke:#181818;stroke-width:0.5;"/><rect fill="#E2E2F0" height="30.2969" rx="2.5" ry="2.5" style="stroke:#181818;stroke-width:0.5;" width="68" x="282" y="87.2969"/><text fill="#000000" font-family="sans-serif" font-size="14" lengthAdjust="spacing" textLength="54" x="289" y="107.292">Rubook</text><rect fill="#E2E2F0" height="30.2969" style="stroke:#181818;stroke-width:0.5;" width="155" x="364" y="83.2969"/><rect fill="#E2E2F0" height="30.2969" style="stroke:#181818;stroke-width:0.5;" width="155" x="360" y="87.2969"/><text fill="#000000" font-family="sans-serif" font-size="14" lengthAdjust="spacing" textLength="141" x="367" y="107.292">Incidents Repository</text><polygon fill="#181818" points="195.5,145.7266,205.5,149.7266,195.5,153.7266,199.5,149.7266" style="stroke:#181818;stroke-width:1.0;"/><line style="stroke:#181818;stroke-width:1.0;" x1="54.5" x2="201.5" y1="149.7266" y2="149.7266"/><text fill="#000000" font-family="sans-serif" font-size="13" lengthAdjust="spacing" textLength="109" x="61.5" y="144.6606">acknowledged by</text><polygon fill="#181818" points="304,174.8594,314,178.8594,304,182.8594,308,178.8594" style="stroke:#181818;stroke-width:1.0;"/><line style="stroke:#181818;stroke-width:1.0;" x1="207.5" x2="310" y1="178.8594" y2="178.8594"/><text fill="#000000" font-family="sans-serif" font-size="13" lengthAdjust="spacing" textLength="51" x="214.5" y="173.7935">execute</text><path d="M10,193.8594 L205,193.8594 L205,200.9922 L195,210.9922 L10,210.9922 L10,193.8594 " fill="#EEEEEE" style="stroke:#000000;stroke-width:1.5;"/><rect fill="none" height="131.5" style="stroke:#000000;stroke-width:1.5;" width="640" x="10" y="193.8594"/><text fill="#000000" font-family="sans-serif" font-size="13" font-weight="bold" lengthAdjust="spacing" textLength="150" x="25" y="206.9263">Succesfull Execution</text><polygon fill="#181818" points="427.5,228.125,437.5,232.125,427.5,236.125,431.5,232.125" style="stroke:#181818;stroke-width:1.0;"/><line style="stroke:#181818;stroke-width:1.0;" x1="207.5" x2="433.5" y1="232.125" y2="232.125"/><text fill="#000000" font-family="sans-serif" font-size="13" lengthAdjust="spacing" textLength="48" x="214.5" y="227.0591">push to</text><line style="stroke:#000000;stroke-width:1.0;stroke-dasharray:2.0,2.0;" x1="10" x2="650" y1="241.125" y2="241.125"/><text fill="#000000" font-family="sans-serif" font-size="11" font-weight="bold" lengthAdjust="spacing" textLength="48" x="15" y="251.3354">[Errors]</text><polygon fill="#181818" points="65.5,272.0625,55.5,276.0625,65.5,280.0625,61.5,276.0625" style="stroke:#181818;stroke-width:1.0;"/><line style="stroke:#181818;stroke-width:1.0;" x1="59.5" x2="206.5" y1="276.0625" y2="276.0625"/><text fill="#000000" font-family="sans-serif" font-size="13" lengthAdjust="spacing" textLength="129" x="71.5" y="270.9966">Use diagnostic tools</text><polygon fill="#181818" points="517,301.1953,527,305.1953,517,309.1953,521,305.1953" style="stroke:#181818;stroke-width:1.0;"/><line style="stroke:#181818;stroke-width:1.0;" x1="207.5" x2="523" y1="305.1953" y2="305.1953"/><text fill="#000000" font-family="sans-serif" font-size="13" lengthAdjust="spacing" textLength="41" x="214.5" y="300.1294">create</text><rect fill="#E2E2F0" height="30.2969" rx="2.5" ry="2.5" style="stroke:#181818;stroke-width:0.5;" width="111" x="529" y="284.0625"/><text fill="#000000" font-family="sans-serif" font-size="14" lengthAdjust="spacing" textLength="97" x="536" y="304.0576">New Runbook</text><!--MD5=[6133c5bd40de4db3c0221dd9d8b86f40]
@startuml
hide footbox
title Automated Runbooks

participant "Incident" as incident
actor "On-call responder" as platform
participant "Rubook" as runbook
collections "Incidents Repository" as repo

platform <- incident: acknowledged by
platform -> runbook : execute
group Succesfull Execution
platform -> repo : push to
else Errors
  platform -> incident : Use diagnostic tools
  platform -> "New Runbook" ** :create
end
@enduml

PlantUML version 1.2022.3(Tue Mar 29 18:10:57 CEST 2022)
(GPL source distribution)
Java Runtime: OpenJDK Runtime Environment
JVM: OpenJDK 64-Bit Server VM
Default Encoding: UTF-8
Language: en
Country: GB
--></g></svg>