<svg xmlns="http://www.w3.org/2000/svg" xmlns:xlink="http://www.w3.org/1999/xlink" contentStyleType="text/css" height="570px" preserveAspectRatio="none" style="width:738px;height:570px;background:#FFFFFF;" version="1.1" viewBox="0 0 738 570" width="738px" zoomAndPan="magnify"><title>Tmuxinator Workflow</title><defs/><g><text fill="#000000" font-family="sans-serif" font-size="14" font-weight="bold" lengthAdjust="spacing" textLength="170.1533" x="285.8511" y="27.9951">Tmuxinator Workflow</text><rect fill="none" height="104.5313" style="stroke:#000000;stroke-width:1.5;" width="491.1514" x="241.7041" y="222.9922"/><line style="stroke:#181818;stroke-width:0.5;stroke-dasharray:5.0,5.0;" x1="23" x2="23" y1="118.5938" y2="490.1875"/><line style="stroke:#181818;stroke-width:0.5;stroke-dasharray:5.0,5.0;" x1="202.9141" x2="202.9141" y1="118.5938" y2="490.1875"/><line style="stroke:#181818;stroke-width:0.5;stroke-dasharray:5.0,5.0;" x1="298.7041" x2="298.7041" y1="118.5938" y2="490.1875"/><line style="stroke:#181818;stroke-width:0.5;stroke-dasharray:5.0,5.0;" x1="513.9341" x2="513.9341" y1="118.5938" y2="490.1875"/><line style="stroke:#181818;stroke-width:0.5;stroke-dasharray:5.0,5.0;" x1="698.7031" x2="698.7031" y1="118.5938" y2="490.1875"/><text fill="#000000" font-family="sans-serif" font-size="14" lengthAdjust="spacing" textLength="31.9102" x="5" y="115.292">User</text><ellipse cx="23.9551" cy="50.7969" fill="#E2E2F0" rx="8" ry="8" style="stroke:#181818;stroke-width:0.5;"/><path d="M23.9551,58.7969 L23.9551,85.7969 M10.9551,66.7969 L36.9551,66.7969 M23.9551,85.7969 L10.9551,100.7969 M23.9551,85.7969 L36.9551,100.7969 " fill="none" style="stroke:#181818;stroke-width:0.5;"/><text fill="#000000" font-family="sans-serif" font-size="14" lengthAdjust="spacing" textLength="31.9102" x="5" y="502.1826">User</text><ellipse cx="23.9551" cy="513.9844" fill="#E2E2F0" rx="8" ry="8" style="stroke:#181818;stroke-width:0.5;"/><path d="M23.9551,521.9844 L23.9551,548.9844 M10.9551,529.9844 L36.9551,529.9844 M23.9551,548.9844 L10.9551,563.9844 M23.9551,548.9844 L36.9551,563.9844 " fill="none" style="stroke:#181818;stroke-width:0.5;"/><rect fill="#E2E2F0" height="30.2969" rx="2.5" ry="2.5" style="stroke:#181818;stroke-width:0.5;" width="75.79" x="165.9141" y="87.2969"/><text fill="#000000" font-family="sans-serif" font-size="14" lengthAdjust="spacing" textLength="61.79" x="172.9141" y="107.292">Terminal</text><rect fill="#E2E2F0" height="30.2969" rx="2.5" ry="2.5" style="stroke:#181818;stroke-width:0.5;" width="75.79" x="165.9141" y="489.1875"/><text fill="#000000" font-family="sans-serif" font-size="14" lengthAdjust="spacing" textLength="61.79" x="172.9141" y="509.1826">Terminal</text><rect fill="#E2E2F0" height="30.2969" rx="2.5" ry="2.5" style="stroke:#181818;stroke-width:0.5;" width="94.5" x="251.7041" y="87.2969"/><text fill="#000000" font-family="sans-serif" font-size="14" lengthAdjust="spacing" textLength="80.5" x="258.7041" y="107.292">Tmuxinator</text><rect fill="#E2E2F0" height="30.2969" rx="2.5" ry="2.5" style="stroke:#181818;stroke-width:0.5;" width="94.5" x="251.7041" y="489.1875"/><text fill="#000000" font-family="sans-serif" font-size="14" lengthAdjust="spacing" textLength="80.5" x="258.7041" y="509.1826">Tmuxinator</text><rect fill="#E2E2F0" height="30.2969" rx="2.5" ry="2.5" style="stroke:#181818;stroke-width:0.5;" width="108.3975" x="459.9341" y="87.2969"/><text fill="#000000" font-family="sans-serif" font-size="14" lengthAdjust="spacing" textLength="94.3975" x="466.9341" y="107.292">tmux Process</text><rect fill="#E2E2F0" height="30.2969" rx="2.5" ry="2.5" style="stroke:#181818;stroke-width:0.5;" width="108.3975" x="459.9341" y="489.1875"/><text fill="#000000" font-family="sans-serif" font-size="14" lengthAdjust="spacing" textLength="94.3975" x="466.9341" y="509.1826">tmux Process</text><rect fill="#E2E2F0" height="30.2969" rx="2.5" ry="2.5" style="stroke:#181818;stroke-width:0.5;" width="48.1523" x="674.7031" y="87.2969"/><text fill="#000000" font-family="sans-serif" font-size="14" lengthAdjust="spacing" textLength="34.1523" x="681.7031" y="107.292">Shell</text><rect fill="#E2E2F0" height="30.2969" rx="2.5" ry="2.5" style="stroke:#181818;stroke-width:0.5;" width="48.1523" x="674.7031" y="489.1875"/><text fill="#000000" font-family="sans-serif" font-size="14" lengthAdjust="spacing" textLength="34.1523" x="681.7031" y="509.1826">Shell</text><polygon fill="#181818" points="191.8091,145.7266,201.8091,149.7266,191.8091,153.7266,195.8091,149.7266" style="stroke:#181818;stroke-width:1;"/><line style="stroke:#181818;stroke-width:1;" x1="23.9551" x2="197.8091" y1="149.7266" y2="149.7266"/><text fill="#000000" font-family="sans-serif" font-size="13" lengthAdjust="spacing" textLength="152.4453" x="30.9551" y="144.6606">tmuxinator new project</text><polygon fill="#181818" points="191.8091,174.8594,201.8091,178.8594,191.8091,182.8594,195.8091,178.8594" style="stroke:#181818;stroke-width:1;"/><line style="stroke:#181818;stroke-width:1;" x1="23.9551" x2="197.8091" y1="178.8594" y2="178.8594"/><text fill="#000000" font-family="sans-serif" font-size="13" lengthAdjust="spacing" textLength="155.854" x="30.9551" y="173.7935">tmuxinator start project</text><polygon fill="#181818" points="502.1328,203.9922,512.1328,207.9922,502.1328,211.9922,506.1328,207.9922" style="stroke:#181818;stroke-width:1;"/><line style="stroke:#181818;stroke-width:1;" x1="298.9541" x2="508.1328" y1="207.9922" y2="207.9922"/><text fill="#000000" font-family="sans-serif" font-size="13" lengthAdjust="spacing" textLength="95.7354" x="305.9541" y="202.9263">Create session</text><path d="M241.7041,222.9922 L318.3281,222.9922 L318.3281,230.125 L308.3281,240.125 L241.7041,240.125 L241.7041,222.9922 " fill="#EEEEEE" style="stroke:#000000;stroke-width:1.5;"/><rect fill="none" height="104.5313" style="stroke:#000000;stroke-width:1.5;" width="491.1514" x="241.7041" y="222.9922"/><text fill="#000000" font-family="sans-serif" font-size="13" font-weight="bold" lengthAdjust="spacing" textLength="31.624" x="256.7041" y="236.0591">loop</text><text fill="#000000" font-family="sans-serif" font-size="11" font-weight="bold" lengthAdjust="spacing" textLength="114.8018" x="333.3281" y="235.2026">[For each window]</text><polygon fill="#181818" points="502.1328,257.2578,512.1328,261.2578,502.1328,265.2578,506.1328,261.2578" style="stroke:#181818;stroke-width:1;"/><line style="stroke:#181818;stroke-width:1;" x1="298.9541" x2="508.1328" y1="261.2578" y2="261.2578"/><text fill="#000000" font-family="sans-serif" font-size="13" lengthAdjust="spacing" textLength="86.8423" x="305.9541" y="256.1919">Create panes</text><polygon fill="#181818" points="502.1328,286.3906,512.1328,290.3906,502.1328,294.3906,506.1328,290.3906" style="stroke:#181818;stroke-width:1;"/><line style="stroke:#181818;stroke-width:1;" x1="298.9541" x2="508.1328" y1="290.3906" y2="290.3906"/><text fill="#000000" font-family="sans-serif" font-size="13" lengthAdjust="spacing" textLength="128.1782" x="305.9541" y="285.3247">Execute commands</text><polygon fill="#181818" points="686.7793,315.5234,696.7793,319.5234,686.7793,323.5234,690.7793,319.5234" style="stroke:#181818;stroke-width:1;"/><line style="stroke:#181818;stroke-width:1;" x1="514.1328" x2="692.7793" y1="319.5234" y2="319.5234"/><text fill="#000000" font-family="sans-serif" font-size="13" lengthAdjust="spacing" textLength="160.6465" x="521.1328" y="314.4575">Run commands in panes</text><polygon fill="#181818" points="502.1328,351.6563,512.1328,355.6563,502.1328,359.6563,506.1328,355.6563" style="stroke:#181818;stroke-width:1;"/><line style="stroke:#181818;stroke-width:1;" x1="298.9541" x2="508.1328" y1="355.6563" y2="355.6563"/><text fill="#000000" font-family="sans-serif" font-size="13" lengthAdjust="spacing" textLength="72.814" x="305.9541" y="350.5903">Set layouts</text><polygon fill="#181818" points="502.1328,380.7891,512.1328,384.7891,502.1328,388.7891,506.1328,384.7891" style="stroke:#181818;stroke-width:1;"/><line style="stroke:#181818;stroke-width:1;" x1="298.9541" x2="508.1328" y1="384.7891" y2="384.7891"/><text fill="#000000" font-family="sans-serif" font-size="13" lengthAdjust="spacing" textLength="181.2954" x="305.9541" y="379.7231">Select startup window/pane</text><polygon fill="#181818" points="34.9551,409.9219,24.9551,413.9219,34.9551,417.9219,30.9551,413.9219" style="stroke:#181818;stroke-width:1;"/><line style="stroke:#181818;stroke-width:1;" x1="28.9551" x2="297.9541" y1="413.9219" y2="413.9219"/><text fill="#000000" font-family="sans-serif" font-size="13" lengthAdjust="spacing" textLength="111.8774" x="40.9551" y="408.856">Attach to session</text><polygon fill="#181818" points="502.1328,439.0547,512.1328,443.0547,502.1328,447.0547,506.1328,443.0547" style="stroke:#181818;stroke-width:1;"/><line style="stroke:#181818;stroke-width:1;" x1="23.9551" x2="508.1328" y1="443.0547" y2="443.0547"/><text fill="#000000" font-family="sans-serif" font-size="13" lengthAdjust="spacing" textLength="90.8794" x="30.9551" y="437.9888">Exit or detach</text><polygon fill="#181818" points="309.9541,468.1875,299.9541,472.1875,309.9541,476.1875,305.9541,472.1875" style="stroke:#181818;stroke-width:1;"/><line style="stroke:#181818;stroke-width:1;" x1="303.9541" x2="513.1328" y1="472.1875" y2="472.1875"/><text fill="#000000" font-family="sans-serif" font-size="13" lengthAdjust="spacing" textLength="191.1787" x="315.9541" y="467.1216">Execute hooks (if configured)</text><!--SRC=[VP3DJiCm48JlVefLJd10t7D0GWZEYBRYR3aROkfu8tkjbBTdDtzLIqLEwyotuncpvu2mxyl9HykKu9FIiGqq6cETdgj3nbI1pL1aC8DDx9qVR6IezfXwMGkJp7AuaZVN6P3Z9Q1_u3sHmvmdP93v4jbr66R_h9CncW8UdgRhwibp2HvnrFrlTFmFbLdSDsuA89ZUMyDBGii8MT9uYiO4eW7UP0cjws3qiP5d0VbkhabUp3VarnEw8hgZlhUncH6L59bArV1HugQ3ZuiNniPSHTmXGx0_L3Z_KO8qclkLOKdxg4ORg8zImpEprc4w5rrVQmti6QHrWmgQDQgwdDjqHCSCTxwLtB7rNoLXSsz-0G00]--></g></svg>