<svg xmlns="http://www.w3.org/2000/svg" xmlns:xlink="http://www.w3.org/1999/xlink" contentStyleType="text/css" height="199px" preserveAspectRatio="none" style="width:581px;height:199px;background:#FFFFFF;" version="1.1" viewBox="0 0 581 199" width="581px" zoomAndPan="magnify"><title>Systemd timer pattern</title><defs/><g><text fill="#000000" font-family="sans-serif" font-size="14" font-weight="bold" lengthAdjust="spacing" textLength="179.7852" x="199.717" y="27.9951">Systemd timer pattern</text><line style="stroke:#181818;stroke-width:0.5;stroke-dasharray:5.0,5.0;" x1="125" x2="125" y1="73.5938" y2="163.8594"/><line style="stroke:#181818;stroke-width:0.5;stroke-dasharray:5.0,5.0;" x1="303.0815" x2="303.0815" y1="73.5938" y2="163.8594"/><line style="stroke:#181818;stroke-width:0.5;stroke-dasharray:5.0,5.0;" x1="500.5151" x2="500.5151" y1="73.5938" y2="163.8594"/><rect fill="#E2E2F0" height="30.2969" rx="2.5" ry="2.5" style="stroke:#181818;stroke-width:0.5;" width="118.501" x="66" y="42.2969"/><text fill="#000000" font-family="sans-serif" font-size="14" lengthAdjust="spacing" textLength="104.501" x="73" y="62.292">Service (timer)</text><rect fill="#E2E2F0" height="30.2969" rx="2.5" ry="2.5" style="stroke:#181818;stroke-width:0.5;" width="118.501" x="66" y="162.8594"/><text fill="#000000" font-family="sans-serif" font-size="14" lengthAdjust="spacing" textLength="104.501" x="73" y="182.8545">Service (timer)</text><rect fill="#E2E2F0" height="30.2969" rx="2.5" ry="2.5" style="stroke:#181818;stroke-width:0.5;" width="131.4688" x="238.0815" y="42.2969"/><text fill="#000000" font-family="sans-serif" font-size="14" lengthAdjust="spacing" textLength="117.4688" x="245.0815" y="62.292">Service (regular)</text><rect fill="#E2E2F0" height="30.2969" rx="2.5" ry="2.5" style="stroke:#181818;stroke-width:0.5;" width="131.4688" x="238.0815" y="162.8594"/><text fill="#000000" font-family="sans-serif" font-size="14" lengthAdjust="spacing" textLength="117.4688" x="245.0815" y="182.8545">Service (regular)</text><rect fill="#E2E2F0" height="30.2969" rx="2.5" ry="2.5" style="stroke:#181818;stroke-width:0.5;" width="147.7041" x="427.5151" y="42.2969"/><text fill="#000000" font-family="sans-serif" font-size="14" lengthAdjust="spacing" textLength="133.7041" x="434.5151" y="62.292">Script or command</text><rect fill="#E2E2F0" height="30.2969" rx="2.5" ry="2.5" style="stroke:#181818;stroke-width:0.5;" width="147.7041" x="427.5151" y="162.8594"/><text fill="#000000" font-family="sans-serif" font-size="14" lengthAdjust="spacing" textLength="133.7041" x="434.5151" y="182.8545">Script or command</text><polygon fill="#181818" points="291.8159,103.7266,301.8159,107.7266,291.8159,111.7266,295.8159,107.7266" style="stroke:#181818;stroke-width:1;"/><line style="stroke:#181818;stroke-width:1;" x1="125.2505" x2="297.8159" y1="107.7266" y2="107.7266"/><text fill="#000000" font-family="sans-serif" font-size="13" lengthAdjust="spacing" textLength="154.5654" x="132.2505" y="102.6606">Trigger service and exit</text><path d="M5,88.5938 L5,113.5938 L121,113.5938 L121,98.5938 L111,88.5938 L5,88.5938 " fill="#FEFFDD" style="stroke:#181818;stroke-width:0.5;"/><path d="M111,88.5938 L111,98.5938 L121,98.5938 L111,88.5938 " fill="#FEFFDD" style="stroke:#181818;stroke-width:0.5;"/><text fill="#000000" font-family="sans-serif" font-size="13" lengthAdjust="spacing" textLength="95.0308" x="11" y="105.6606">Type=oneshot</text><polygon fill="#181818" points="489.3672,138.8594,499.3672,142.8594,489.3672,146.8594,493.3672,142.8594" style="stroke:#181818;stroke-width:1;"/><line style="stroke:#181818;stroke-width:1;" x1="303.8159" x2="495.3672" y1="142.8594" y2="142.8594"/><text fill="#000000" font-family="sans-serif" font-size="13" lengthAdjust="spacing" textLength="173.5513" x="310.8159" y="137.7935">Trigger script or command</text><path d="M192,123.7266 L192,148.7266 L298,148.7266 L298,133.7266 L288,123.7266 L192,123.7266 " fill="#FEFFDD" style="stroke:#181818;stroke-width:0.5;"/><path d="M288,123.7266 L288,133.7266 L298,133.7266 L288,123.7266 " fill="#FEFFDD" style="stroke:#181818;stroke-width:0.5;"/><text fill="#000000" font-family="sans-serif" font-size="13" lengthAdjust="spacing" textLength="85.687" x="198" y="140.7935">Type=simple</text><!--SRC=[TOvD2i8m44RtESNGbIwyWA2Ng1S8wMSTo1-JKUpj6viMfEBsyRutewmUr4z54GPI3X3ALXKIZSbMb1rd6vMw7l9Y1peiqh4ZMvh_HnECJszNiJIwKvrmLaf2BeLWuz3KXHhJVZbTj-sPRiBZMDaAg2u8RrOJau8yxbgTAUEI8ieZrSPcVYfBzYkoF_vJAHooXva1]--></g></svg>