<?xml version="1.0" encoding="us-ascii" standalone="no"?><svg xmlns="http://www.w3.org/2000/svg" xmlns:xlink="http://www.w3.org/1999/xlink" contentStyleType="text/css" height="469px" preserveAspectRatio="none" style="width:497px;height:469px;" version="1.1" viewBox="0 0 497 469" width="497px" zoomAndPan="magnify"><defs/><g><text fill="#000000" font-family="Verdana" font-size="22" font-weight="bold" lengthAdjust="spacing" textLength="464" x="15" y="35.4209">Task Reminders System Components</text><!--cluster cron--><g id="cluster_cron"><rect fill="#FFFFFF" height="87" rx="2.5" ry="2.5" style="stroke:#000000;stroke-width:1.0;" width="146" x="157.5" y="58.6094"/><text fill="#000000" font-family="Verdana" font-size="14" font-weight="bold" lengthAdjust="spacing" textLength="107" x="177" y="73.6045">Cron Daemon</text></g><!--cluster scripts--><g id="cluster_scripts"><rect fill="#FFFFFF" height="87" rx="2.5" ry="2.5" style="stroke:#000000;stroke-width:1.0;" width="335" x="65.5" y="169.6094"/><text fill="#000000" font-family="Verdana" font-size="14" font-weight="bold" lengthAdjust="spacing" textLength="149" x="158.5" y="184.6045">Notification Scripts</text></g><!--cluster task--><g id="cluster_task"><rect fill="#FFFFFF" height="183" rx="2.5" ry="2.5" style="stroke:#000000;stroke-width:1.0;" width="156" x="70.5" y="280.6094"/><text fill="#000000" font-family="Verdana" font-size="14" font-weight="bold" lengthAdjust="spacing" textLength="95" x="101" y="295.6045">Taskwarrior</text></g><!--cluster notify--><g id="cluster_notify"><rect fill="#FFFFFF" height="87" rx="2.5" ry="2.5" style="stroke:#000000;stroke-width:1.0;" width="184" x="259.5" y="280.6094"/><text fill="#000000" font-family="Verdana" font-size="14" font-weight="bold" lengthAdjust="spacing" textLength="168" x="267.5" y="295.6045">Desktop Notifications</text></g><!--entity timer--><g id="elem_timer"><rect fill="#FFFFFF" height="36.2969" rx="2.5" ry="2.5" style="stroke:#000000;stroke-width:1.0;" width="113" x="174" y="93.6094"/><text fill="#000000" font-family="Verdana" font-size="14" lengthAdjust="spacing" textLength="93" x="184" y="116.6045">Timer Service</text></g><!--entity reminder--><g id="elem_reminder"><rect fill="#FFFFFF" height="36.2969" rx="2.5" ry="2.5" style="stroke:#000000;stroke-width:1.0;" width="138" x="246.5" y="204.6094"/><text fill="#000000" font-family="Verdana" font-size="14" lengthAdjust="spacing" textLength="118" x="256.5" y="227.6045">Reminders Script</text></g><!--entity followup--><g id="elem_followup"><rect fill="#FFFFFF" height="36.2969" rx="2.5" ry="2.5" style="stroke:#000000;stroke-width:1.0;" width="129" x="82" y="204.6094"/><text fill="#000000" font-family="Verdana" font-size="14" lengthAdjust="spacing" textLength="109" x="92" y="227.6045">Follow-up Script</text></g><!--entity db--><g id="elem_db"><rect fill="#FFFFFF" height="36.2969" rx="2.5" ry="2.5" style="stroke:#000000;stroke-width:1.0;" width="123" x="87" y="411.6094"/><text fill="#000000" font-family="Verdana" font-size="14" lengthAdjust="spacing" textLength="103" x="97" y="434.6045">Task Database</text></g><!--entity api--><g id="elem_api"><rect fill="#FFFFFF" height="36.2969" rx="2.5" ry="2.5" style="stroke:#000000;stroke-width:1.0;" width="123" x="87" y="315.6094"/><text fill="#000000" font-family="Verdana" font-size="14" lengthAdjust="spacing" textLength="103" x="97" y="338.6045">Task Query API</text></g><!--entity zenity--><g id="elem_zenity"><rect fill="#FFFFFF" height="36.2969" rx="2.5" ry="2.5" style="stroke:#000000;stroke-width:1.0;" width="63" x="281" y="315.6094"/><text fill="#000000" font-family="Verdana" font-size="14" lengthAdjust="spacing" textLength="43" x="291" y="338.6045">Zenity</text></g><!--link timer to reminder--><g id="link_timer_reminder"><path d="M266.75,129.9394 C266.75,150.5094 266.75,177.6794 266.75,198.2494 " fill="none" id="timer-to-reminder" style="stroke:#000000;stroke-width:1.0;"/><polygon fill="#000000" points="266.75,204.2494,270.75,195.2494,266.75,199.2494,262.75,195.2494,266.75,204.2494" style="stroke:#000000;stroke-width:1.0;"/><ellipse cx="202.75" cy="159.1658" fill="none" rx="3" ry="3" style="stroke:#000000;stroke-width:1.0;"/><text fill="#000000" font-family="Verdana" font-size="13" lengthAdjust="spacing" textLength="56" x="209.75" y="163.1663">/4 * * * *</text></g><!--link timer to followup--><g id="link_timer_followup"><path d="M192.5,129.9394 C192.5,150.5094 192.5,177.6794 192.5,198.2494 " fill="none" id="timer-to-followup" style="stroke:#000000;stroke-width:1.0;"/><polygon fill="#000000" points="192.5,204.2494,196.5,195.2494,192.5,199.2494,188.5,195.2494,192.5,204.2494" style="stroke:#000000;stroke-width:1.0;"/><text fill="#000000" font-family="Verdana" font-size="13" lengthAdjust="spacing" textLength="61" x="130.5" y="163.1663">0 16 * * *</text></g><!--link reminder to api--><g id="link_reminder_api"><path d="M263.75,240.6294 C263.75,273.4494 263.75,339.6094 263.75,339.6094 C263.75,339.6094 243.58,339.6094 216.17,339.6094 " fill="none" id="reminder-to-api" style="stroke:#000000;stroke-width:1.0;"/><polygon fill="#000000" points="210.17,339.6094,219.17,343.6094,215.17,339.6094,219.17,335.6094,210.17,339.6094" style="stroke:#000000;stroke-width:1.0;"/><text fill="#000000" font-family="Verdana" font-size="13" lengthAdjust="spacing" textLength="36" x="226.75" y="312.9763">query</text></g><!--link followup to api--><g id="link_followup_api"><path d="M148.5,240.9394 C148.5,261.5094 148.5,288.6794 148.5,309.2494 " fill="none" id="followup-to-api" style="stroke:#000000;stroke-width:1.0;"/><polygon fill="#000000" points="148.5,315.2494,152.5,306.2494,148.5,310.2494,144.5,306.2494,148.5,315.2494" style="stroke:#000000;stroke-width:1.0;"/><text fill="#000000" font-family="Verdana" font-size="13" lengthAdjust="spacing" textLength="36" x="111.5" y="274.1663">query</text></g><!--link api to db--><g id="link_api_db"><path d="M148.5,351.6694 C148.5,368.7194 148.5,388.1694 148.5,405.3094 " fill="none" id="api-to-db" style="stroke:#000000;stroke-width:1.0;"/><polygon fill="#000000" points="148.5,411.3094,152.5,402.3094,148.5,406.3094,144.5,402.3094,148.5,411.3094" style="stroke:#000000;stroke-width:1.0;"/><text fill="#000000" font-family="Verdana" font-size="13" lengthAdjust="spacing" textLength="29" x="118.5" y="377.5563">read</text></g><!--link reminder to zenity--><g id="link_reminder_zenity"><path d="M312.5,240.9394 C312.5,261.5094 312.5,288.6794 312.5,309.2494 " fill="none" id="reminder-to-zenity" style="stroke:#000000;stroke-width:1.0;"/><polygon fill="#000000" points="312.5,315.2494,316.5,306.2494,312.5,310.2494,308.5,306.2494,312.5,315.2494" style="stroke:#000000;stroke-width:1.0;"/><text fill="#000000" font-family="Verdana" font-size="13" lengthAdjust="spacing" textLength="44" x="267.5" y="274.1663">display</text></g><!--link followup to zenity--><g id="link_followup_zenity"><path d="M211.31,222.6094 C221.5,222.6094 228.75,222.6094 228.75,222.6094 C228.75,222.6094 228.75,327.6094 228.75,327.6094 C228.75,327.6094 251.12,327.6094 274.84,327.6094 " fill="none" id="followup-to-zenity" style="stroke:#000000;stroke-width:1.0;"/><polygon fill="#000000" points="280.84,327.6094,271.84,323.6094,275.84,327.6094,271.84,331.6094,280.84,327.6094" style="stroke:#000000;stroke-width:1.0;"/><text fill="#000000" font-family="Verdana" font-size="13" lengthAdjust="spacing" textLength="44" x="183.75" y="305.4963">display</text></g><!--SRC=[PL9DIyD04BtdLumv5eeAui6382s25r7Ja-9XaapR9SdkEZknHF6_knysf95S9k-zUVDUo9digIEmBIgTkKPfYumTb5WrEpQzhbUcDGp2g9sdICj4LPdE6ksnGeQMWAaIrBkM9f9MQPB14XYMlSaoKUAL6tGDl52dT4tie1YSK0UhevtBij4QyXKR3MkapkWSq44LthypWBUDweYX8FvK5Rq7JWAI_PpiFnfHMrMXABzNLAoik6Zaqfoy9caY7Etu3mo2UzEsvh3ixLImZM1lPoT3lmCoAyFnaeI-ANAOrYXOeakHwtB4dtlY0UwU7YA1Lirir-GQCHQcZL8L7P0XdNWbhMI85bzn32xnmy1oUJjsWXl85-TNi4XFFf4SMmN91LnU7nNZQX3vU9x_296pSM5EX3bWTUaX9gnFFL8-JzNA-LzmPlIF_GK0]--></g></svg>