<?xml version="1.0" encoding="us-ascii" standalone="no"?><svg xmlns="http://www.w3.org/2000/svg" xmlns:xlink="http://www.w3.org/1999/xlink" contentStyleType="text/css" height="434px" preserveAspectRatio="none" style="width:810px;height:434px;background:#FFFFFF;" version="1.1" viewBox="0 0 810 434" width="810px" zoomAndPan="magnify"><defs/><g><line style="stroke:#181818;stroke-width:0.5;stroke-dasharray:1.0,1.0;" x1="24" x2="24" y1="81.2969" y2="427.9219"/><line style="stroke:#181818;stroke-width:0.5;stroke-dasharray:1.0,1.0;" x1="220" x2="220" y1="81.2969" y2="427.9219"/><line style="stroke:#181818;stroke-width:0.5;stroke-dasharray:1.0,1.0;" x1="339" x2="339" y1="81.2969" y2="427.9219"/><line style="stroke:#181818;stroke-width:0.5;stroke-dasharray:1.0,1.0;" x1="471" x2="471" y1="182.6953" y2="427.9219"/><line style="stroke:#181818;stroke-width:2.0;" x1="462" x2="480" y1="400.9219" y2="418.9219"/><line style="stroke:#181818;stroke-width:2.0;" x1="462" x2="480" y1="418.9219" y2="400.9219"/><line style="stroke:#181818;stroke-width:0.5;stroke-dasharray:1.0,1.0;" x1="560" x2="560" y1="81.2969" y2="427.9219"/><line style="stroke:#181818;stroke-width:0.5;stroke-dasharray:1.0,1.0;" x1="780" x2="780" y1="81.2969" y2="427.9219"/><text fill="#000000" font-family="sans-serif" font-size="14" lengthAdjust="spacing" textLength="32" x="5" y="77.9951">User</text><ellipse cx="24" cy="13.5" fill="#E2E2F0" rx="8" ry="8" style="stroke:#181818;stroke-width:0.5;"/><path d="M24,21.5 L24,48.5 M11,29.5 L37,29.5 M24,48.5 L11,63.5 M24,48.5 L37,63.5 " fill="none" style="stroke:#181818;stroke-width:0.5;"/><rect fill="#E2E2F0" height="30.2969" rx="2.5" ry="2.5" style="stroke:#181818;stroke-width:0.5;" width="65" x="187.5" y="50"/><text fill="#000000" font-family="sans-serif" font-size="14" lengthAdjust="spacing" textLength="51" x="194.5" y="69.9951">Neovim</text><rect fill="#E2E2F0" height="30.2969" rx="2.5" ry="2.5" style="stroke:#181818;stroke-width:0.5;" width="93" x="292.5" y="50"/><text fill="#000000" font-family="sans-serif" font-size="14" lengthAdjust="spacing" textLength="79" x="299.5" y="69.9951">Taskwarrior</text><rect fill="#E2E2F0" height="30.2969" rx="2.5" ry="2.5" style="stroke:#181818;stroke-width:0.5;" width="111" x="504.5" y="50"/><text fill="#000000" font-family="sans-serif" font-size="14" lengthAdjust="spacing" textLength="97" x="511.5" y="69.9951">taskwarrior-tui</text><rect fill="#E2E2F0" height="30.2969" rx="2.5" ry="2.5" style="stroke:#181818;stroke-width:0.5;" width="48" x="756" y="50"/><text fill="#000000" font-family="sans-serif" font-size="14" lengthAdjust="spacing" textLength="34" x="763" y="69.9951">tmux</text><polygon fill="#181818" points="208,106.4297,218,110.4297,208,114.4297,212,110.4297" style="stroke:#181818;stroke-width:1.0;"/><line style="stroke:#181818;stroke-width:1.0;" x1="24" x2="214" y1="110.4297" y2="110.4297"/><text fill="#000000" font-family="sans-serif" font-size="13" font-weight="bold" lengthAdjust="spacing" textLength="9" x="31" y="105.3638">1</text><text fill="#000000" font-family="sans-serif" font-size="13" lengthAdjust="spacing" textLength="150" x="44" y="105.3638">Create TODO comment</text><polygon fill="#181818" points="208,135.5625,218,139.5625,208,143.5625,212,139.5625" style="stroke:#181818;stroke-width:1.0;"/><line style="stroke:#181818;stroke-width:1.0;" x1="24" x2="214" y1="139.5625" y2="139.5625"/><text fill="#000000" font-family="sans-serif" font-size="13" font-weight="bold" lengthAdjust="spacing" textLength="9" x="31" y="134.4966">2</text><text fill="#000000" font-family="sans-serif" font-size="13" lengthAdjust="spacing" textLength="100" x="44" y="134.4966">Convert to Task</text><path d="M225,123.4297 L225,148.4297 L340,148.4297 L340,133.4297 L330,123.4297 L225,123.4297 " fill="#FEFFDD" style="stroke:#181818;stroke-width:0.5;"/><path d="M330,123.4297 L330,133.4297 L340,133.4297 L330,123.4297 " fill="#FEFFDD" style="stroke:#181818;stroke-width:0.5;"/><text fill="#000000" font-family="sans-serif" font-size="13" lengthAdjust="spacing" textLength="94" x="231" y="140.4966">trigger (Ctrl+t)</text><polygon fill="#181818" points="327,170.6953,337,174.6953,327,178.6953,331,174.6953" style="stroke:#181818;stroke-width:1.0;"/><line style="stroke:#181818;stroke-width:1.0;" x1="220" x2="333" y1="174.6953" y2="174.6953"/><text fill="#000000" font-family="sans-serif" font-size="13" font-weight="bold" lengthAdjust="spacing" textLength="9" x="227" y="169.6294">3</text><text fill="#000000" font-family="sans-serif" font-size="13" lengthAdjust="spacing" textLength="71" x="240" y="169.6294">lua module</text><rect fill="#E2E2F0" height="30.2969" rx="2.5" ry="2.5" style="stroke:#181818;stroke-width:0.5;" width="47" x="447.5" y="182.6953"/><text fill="#000000" font-family="sans-serif" font-size="14" lengthAdjust="spacing" textLength="33" x="454.5" y="202.6904">Task</text><polygon fill="#181818" points="435.5,199.8281,445.5,203.8281,435.5,207.8281,439.5,203.8281" style="stroke:#181818;stroke-width:1.0;"/><line style="stroke:#181818;stroke-width:1.0;" x1="339" x2="441.5" y1="203.8281" y2="203.8281"/><text fill="#000000" font-family="sans-serif" font-size="13" font-weight="bold" lengthAdjust="spacing" textLength="9" x="346" y="198.7622">4</text><text fill="#000000" font-family="sans-serif" font-size="13" lengthAdjust="spacing" textLength="43" x="359" y="198.7622">Create</text><polygon fill="#181818" points="548,231.125,558,235.125,548,239.125,552,235.125" style="stroke:#181818;stroke-width:1.0;"/><line style="stroke:#181818;stroke-width:1.0;" x1="471" x2="554" y1="235.125" y2="235.125"/><text fill="#000000" font-family="sans-serif" font-size="13" font-weight="bold" lengthAdjust="spacing" textLength="9" x="478" y="230.0591">5</text><text fill="#000000" font-family="sans-serif" font-size="13" lengthAdjust="spacing" textLength="31" x="491" y="230.0591">Sync</text><polygon fill="#181818" points="548,260.2578,558,264.2578,548,268.2578,552,264.2578" style="stroke:#181818;stroke-width:1.0;"/><line style="stroke:#181818;stroke-width:1.0;" x1="24" x2="554" y1="264.2578" y2="264.2578"/><text fill="#000000" font-family="sans-serif" font-size="13" font-weight="bold" lengthAdjust="spacing" textLength="9" x="31" y="259.1919">6</text><text fill="#000000" font-family="sans-serif" font-size="13" lengthAdjust="spacing" textLength="166" x="44" y="259.1919">Open task using taskopen</text><polygon fill="#181818" points="768,289.3906,778,293.3906,768,297.3906,772,293.3906" style="stroke:#181818;stroke-width:1.0;"/><line style="stroke:#181818;stroke-width:1.0;" x1="560" x2="774" y1="293.3906" y2="293.3906"/><text fill="#000000" font-family="sans-serif" font-size="13" font-weight="bold" lengthAdjust="spacing" textLength="9" x="567" y="288.3247">7</text><text fill="#000000" font-family="sans-serif" font-size="13" lengthAdjust="spacing" textLength="183" x="580" y="288.3247">Launch session via taskopen</text><polygon fill="#181818" points="231,318.5234,221,322.5234,231,326.5234,227,322.5234" style="stroke:#181818;stroke-width:1.0;"/><line style="stroke:#181818;stroke-width:1.0;" x1="225" x2="779" y1="322.5234" y2="322.5234"/><text fill="#000000" font-family="sans-serif" font-size="13" font-weight="bold" lengthAdjust="spacing" textLength="9" x="237" y="317.4575">8</text><text fill="#000000" font-family="sans-serif" font-size="13" lengthAdjust="spacing" textLength="114" x="250" y="317.4575">Open file at TODO</text><polygon fill="#181818" points="35,347.6563,25,351.6563,35,355.6563,31,351.6563" style="stroke:#181818;stroke-width:1.0;"/><polygon fill="#181818" points="208,347.6563,218,351.6563,208,355.6563,212,351.6563" style="stroke:#181818;stroke-width:1.0;"/><line style="stroke:#181818;stroke-width:1.0;stroke-dasharray:2.0,2.0;" x1="29" x2="214" y1="351.6563" y2="351.6563"/><text fill="#000000" font-family="sans-serif" font-size="13" font-weight="bold" lengthAdjust="spacing" textLength="9" x="41" y="346.5903">9</text><text fill="#000000" font-family="sans-serif" font-size="13" lengthAdjust="spacing" textLength="159" x="54" y="346.5903">Remove TODO comment</text><polygon fill="#181818" points="327,376.7891,337,380.7891,327,384.7891,331,380.7891" style="stroke:#181818;stroke-width:1.0;"/><line style="stroke:#181818;stroke-width:1.0;" x1="220" x2="333" y1="380.7891" y2="380.7891"/><text fill="#000000" font-family="sans-serif" font-size="13" font-weight="bold" lengthAdjust="spacing" textLength="18" x="227" y="375.7231">10</text><text fill="#000000" font-family="sans-serif" font-size="13" lengthAdjust="spacing" textLength="73" x="249" y="375.7231">TODO done</text><polygon fill="#181818" points="459,405.9219,469,409.9219,459,413.9219,463,409.9219" style="stroke:#181818;stroke-width:1.0;"/><line style="stroke:#181818;stroke-width:1.0;" x1="339" x2="465" y1="409.9219" y2="409.9219"/><text fill="#000000" font-family="sans-serif" font-size="13" font-weight="bold" lengthAdjust="spacing" textLength="18" x="346" y="404.856">11</text><text fill="#000000" font-family="sans-serif" font-size="13" lengthAdjust="spacing" textLength="86" x="368" y="404.856">Mark as done</text><!--SRC=[RP71JiCm38RlUGfl9n3Q2rI8oxWW0PFOzW1UwtNMchXAdBBnzAGfWwxivhZVx_-lZQMAXsqWRmvS4Un5T2SdWr75HRjB_N1arw972mtlgM57Q_MeL9-X4bMgpAprM5i49Va2zP5CufLBRj4fpDz9EhPpm013QNe_M3pzF0jOUae3ORDwNa4frfBJ_uouZho22cmm78sJfF1S7xH8dbpN2RzRgcyUzFxQlyS_qNiMdqECtcQOtlkCkWKq4S5A5HiovP1jF37xZ_YB_F8Zr_Rw1ouqyZJ2PliouMqy3L0giiqaNb8Ki3wxydT7qu-hbXpqlX03kpgNadhc6ipIP5B0AqPN7Y1G22mEEiQH9X7ZG-JXUsu8KFF9XXYFYn7pGLQwoK5lhXgA0Qh4qQsLmcoMa3VqntuZcVe6]--></g></svg>