<?xml version="1.0" encoding="us-ascii" standalone="no"?><svg xmlns="http://www.w3.org/2000/svg" xmlns:xlink="http://www.w3.org/1999/xlink" contentStyleType="text/css" height="344px" preserveAspectRatio="none" style="width:1240px;height:344px;background:#FFFFFF;" version="1.1" viewBox="0 0 1240 344" width="1240px" zoomAndPan="magnify"><defs/><g><rect fill="#FFFFFF" height="281.9297" style="stroke:#181818;stroke-width:1.0;" width="10" x="715.5" y="46.2969"/><rect fill="none" height="44.1328" style="stroke:#000000;stroke-width:1.5;" width="212" x="614.5" y="161.8281"/><rect fill="none" height="71.1328" style="stroke:#000000;stroke-width:1.5;" width="392.5" x="232" y="219.9609"/><line style="stroke:#181818;stroke-width:0.5;stroke-dasharray:5.0,5.0;" x1="290" x2="290" y1="36.2969" y2="337.2266"/><line style="stroke:#181818;stroke-width:0.5;stroke-dasharray:5.0,5.0;" x1="542.5" x2="542.5" y1="36.2969" y2="337.2266"/><line style="stroke:#181818;stroke-width:0.5;stroke-dasharray:5.0,5.0;" x1="720.5" x2="720.5" y1="36.2969" y2="337.2266"/><line style="stroke:#181818;stroke-width:0.5;stroke-dasharray:5.0,5.0;" x1="881.5" x2="881.5" y1="36.2969" y2="337.2266"/><line style="stroke:#181818;stroke-width:0.5;stroke-dasharray:5.0,5.0;" x1="1020.5" x2="1020.5" y1="36.2969" y2="337.2266"/><line style="stroke:#181818;stroke-width:0.5;stroke-dasharray:5.0,5.0;" x1="1166.5" x2="1166.5" y1="36.2969" y2="337.2266"/><rect fill="#E2E2F0" height="30.2969" rx="2.5" ry="2.5" style="stroke:#181818;stroke-width:0.5;" width="97" x="242" y="5"/><text fill="#000000" font-family="sans-serif" font-size="14" lengthAdjust="spacing" textLength="83" x="249" y="24.9951">Introduction</text><rect fill="#E2E2F0" height="30.2969" rx="2.5" ry="2.5" style="stroke:#181818;stroke-width:0.5;" width="143" x="471.5" y="5"/><text fill="#000000" font-family="sans-serif" font-size="14" lengthAdjust="spacing" textLength="129" x="478.5" y="24.9951">Neovim integration</text><rect fill="#E2E2F0" height="30.2969" rx="2.5" ry="2.5" style="stroke:#181818;stroke-width:0.5;" width="192" x="624.5" y="5"/><text fill="#000000" font-family="sans-serif" font-size="14" lengthAdjust="spacing" textLength="178" x="631.5" y="24.9951">Reminders and Followups</text><rect fill="#E2E2F0" height="30.2969" rx="2.5" ry="2.5" style="stroke:#181818;stroke-width:0.5;" width="111" x="826.5" y="5"/><text fill="#000000" font-family="sans-serif" font-size="14" lengthAdjust="spacing" textLength="97" x="833.5" y="24.9951">Time Tracking</text><rect fill="#E2E2F0" height="30.2969" rx="2.5" ry="2.5" style="stroke:#181818;stroke-width:0.5;" width="147" x="947.5" y="5"/><text fill="#000000" font-family="sans-serif" font-size="14" lengthAdjust="spacing" textLength="133" x="954.5" y="24.9951">External Issue Sync</text><rect fill="#E2E2F0" height="30.2969" rx="2.5" ry="2.5" style="stroke:#181818;stroke-width:0.5;" width="124" x="1104.5" y="5"/><text fill="#000000" font-family="sans-serif" font-size="14" lengthAdjust="spacing" textLength="110" x="1111.5" y="24.9951">5 more videos...</text><rect fill="#FFFFFF" height="281.9297" style="stroke:#181818;stroke-width:1.0;" width="10" x="715.5" y="46.2969"/><path d="M5,51.2969 L5,106.2969 L286,106.2969 L286,61.2969 L276,51.2969 L5,51.2969 " fill="#FEFFDD" style="stroke:#181818;stroke-width:0.5;"/><path d="M276,51.2969 L276,61.2969 L286,61.2969 L276,51.2969 " fill="#FEFFDD" style="stroke:#181818;stroke-width:0.5;"/><text fill="#000000" font-family="sans-serif" font-size="13" lengthAdjust="spacing" textLength="206" x="11" y="68.3638">Showcases various automations</text><text fill="#000000" font-family="sans-serif" font-size="13" lengthAdjust="spacing" textLength="136" x="11" y="83.4966">that are possible with</text><text fill="#000000" font-family="sans-serif" font-size="13" lengthAdjust="spacing" textLength="260" x="11" y="98.6294">set of 'open source' command-line tools.</text><path d="M334,51.2969 L334,91.2969 L538,91.2969 L538,61.2969 L528,51.2969 L334,51.2969 " fill="#FEFFDD" style="stroke:#181818;stroke-width:0.5;"/><path d="M528,51.2969 L528,61.2969 L538,61.2969 L528,51.2969 " fill="#FEFFDD" style="stroke:#181818;stroke-width:0.5;"/><text fill="#000000" font-family="sans-serif" font-size="13" lengthAdjust="spacing" textLength="151" x="340" y="68.3638">Neovim integration with</text><text fill="#000000" font-family="sans-serif" font-size="13" lengthAdjust="spacing" textLength="183" x="340" y="83.4966">developer TODOs and notes.</text><rect fill="#EEEEEE" height="3" style="stroke:#EEEEEE;stroke-width:1.0;" width="1233.5" x="0" y="132.2617"/><line style="stroke:#000000;stroke-width:1.0;" x1="0" x2="1233.5" y1="132.2617" y2="132.2617"/><line style="stroke:#000000;stroke-width:1.0;" x1="0" x2="1233.5" y1="135.2617" y2="135.2617"/><rect fill="#EEEEEE" height="23.1328" style="stroke:#000000;stroke-width:2.0;" width="226" x="503.75" y="121.6953"/><text fill="#000000" font-family="sans-serif" font-size="13" font-weight="bold" lengthAdjust="spacing" textLength="207" x="509.75" y="137.7622">Taskwarrior Series Progress</text><path d="M614.5,161.8281 L766.5,161.8281 L766.5,168.9609 L756.5,178.9609 L614.5,178.9609 L614.5,161.8281 " fill="#EEEEEE" style="stroke:#000000;stroke-width:1.5;"/><rect fill="none" height="44.1328" style="stroke:#000000;stroke-width:1.5;" width="212" x="614.5" y="161.8281"/><text fill="#000000" font-family="sans-serif" font-size="13" font-weight="bold" lengthAdjust="spacing" textLength="107" x="629.5" y="174.895">Current Video &#127909;</text><path d="M232,219.9609 L429,219.9609 L429,227.0938 L419,237.0938 L232,237.0938 L232,219.9609 " fill="#EEEEEE" style="stroke:#000000;stroke-width:1.5;"/><rect fill="none" height="71.1328" style="stroke:#000000;stroke-width:1.5;" width="392.5" x="232" y="219.9609"/><text fill="#000000" font-family="sans-serif" font-size="13" font-weight="bold" lengthAdjust="spacing" textLength="152" x="247" y="233.0278">Completed Videos &#10003;</text><polygon fill="#181818" points="870,315.2266,880,319.2266,870,323.2266,874,319.2266" style="stroke:#181818;stroke-width:1.0;"/><line style="stroke:#181818;stroke-width:1.0;" x1="725.5" x2="876" y1="319.2266" y2="319.2266"/><text fill="#000000" font-family="sans-serif" font-size="13" lengthAdjust="spacing" textLength="54" x="732.5" y="314.1606">Next up &#128284;</text><!--SRC=[VPFFRXCn4CRl-nIVUY0N6aXe-LCf72WW8Y6Acf0Buk3iJZPMl9xLs9kaBy45ZfLwuiLuWZu2it44R2BrijBQtpV-URxnqXQ41NESypRBQYFHvhOsFk9axADmqUJHiZ-12PWDCk29vqXmj8ZWHLe29alUv2PGmDg8vIR0D94hqre3TfAuD15623M7OEUEiB5ncVO2xOhrk2QFm8tar4FELMLySUgi9qHc5_eg9b-W9JXW_KIyjXMiZrIA-KSyF2OUxeuyDknuTdi5hSafYs1wzVPAxx8_imlGEV-QAkiBaYH-pyxnfgb3WdZMrKvjHPYAoLVMbqbnrbMysqOIRnp68JI4oOtFa-uSNU4vAjQMhZL43lr-FwcUPprqkzF2FrOq1JSswbrRobgJ4XjlzYOSkYwRe1dY0_CgN21MpTPw4rcEk_pYOUi-oO0ejYn9akdbmoPdvkJ-dwFaUdNe-dBz4O_mHdWJDB3n8ThWQPQDHfYQiDeOQM-C2OdLIVqiN0g5WD4eoqhXfiPb8q9QTDRs4_Ttttzfu4OVmDhe16cEq0zElovjKP3_TlgwNTE1-EldgdOKgKWL0dxV_cWzWwwdVJEpONTjcEgqvVNl31SweTi8BNf_z_Cs-mC0]--></g></svg>